<?xml version="1.0" encoding="utf-8" standalone="no"?>
<!DOCTYPE svg PUBLIC "-//W3C//DTD SVG 1.1//EN"
  "http://www.w3.org/Graphics/SVG/1.1/DTD/svg11.dtd">
<svg xmlns:xlink="http://www.w3.org/1999/xlink" width="2520pt" height="720pt" viewBox="0 0 2520 720" xmlns="http://www.w3.org/2000/svg" version="1.1">
 <metadata>
  <rdf:RDF xmlns:dc="http://purl.org/dc/elements/1.1/" xmlns:cc="http://creativecommons.org/ns#" xmlns:rdf="http://www.w3.org/1999/02/22-rdf-syntax-ns#">
   <cc:Work>
    <dc:type rdf:resource="http://purl.org/dc/dcmitype/StillImage"/>
    <dc:date>2025-05-08T00:30:55.580530</dc:date>
    <dc:format>image/svg+xml</dc:format>
    <dc:creator>
     <cc:Agent>
      <dc:title>Matplotlib v3.10.0, https://matplotlib.org/</dc:title>
     </cc:Agent>
    </dc:creator>
   </cc:Work>
  </rdf:RDF>
 </metadata>
 <defs>
  <style type="text/css">*{stroke-linejoin: round; stroke-linecap: butt}</style>
 </defs>
 <g id="figure_1">
  <g id="patch_1">
   <path d="M 0 720 
L 2520 720 
L 2520 0 
L 0 0 
z
" style="fill: #ffffff"/>
  </g>
  <g id="axes_1">
   <g id="patch_2">
    <path d="M 96.345312 596.029696 
L 2509.2 596.029696 
L 2509.2 53.366906 
L 96.345312 53.366906 
z
" style="fill: #ffffff"/>
   </g>
   <g id="matplotlib.axis_1">
    <g id="xtick_1">
     <g id="text_1">
      <!-- Tiglic acid -->
      <g style="fill: #262626" transform="translate(161.459376 673.628377) rotate(-30) scale(0.25 -0.25)">
       <defs>
        <path id="ArialMT-54" d="M 1659 0 
L 1659 4041 
L 150 4041 
L 150 4581 
L 3781 4581 
L 3781 4041 
L 2266 4041 
L 2266 0 
L 1659 0 
z
" transform="scale(0.015625)"/>
        <path id="ArialMT-69" d="M 425 3934 
L 425 4581 
L 988 4581 
L 988 3934 
L 425 3934 
z
M 425 0 
L 425 3319 
L 988 3319 
L 988 0 
L 425 0 
z
" transform="scale(0.015625)"/>
        <path id="ArialMT-67" d="M 319 -275 
L 866 -356 
Q 900 -609 1056 -725 
Q 1266 -881 1628 -881 
Q 2019 -881 2231 -725 
Q 2444 -569 2519 -288 
Q 2563 -116 2559 434 
Q 2191 0 1641 0 
Q 956 0 581 494 
Q 206 988 206 1678 
Q 206 2153 378 2554 
Q 550 2956 876 3175 
Q 1203 3394 1644 3394 
Q 2231 3394 2613 2919 
L 2613 3319 
L 3131 3319 
L 3131 450 
Q 3131 -325 2973 -648 
Q 2816 -972 2473 -1159 
Q 2131 -1347 1631 -1347 
Q 1038 -1347 672 -1080 
Q 306 -813 319 -275 
z
M 784 1719 
Q 784 1066 1043 766 
Q 1303 466 1694 466 
Q 2081 466 2343 764 
Q 2606 1063 2606 1700 
Q 2606 2309 2336 2618 
Q 2066 2928 1684 2928 
Q 1309 2928 1046 2623 
Q 784 2319 784 1719 
z
" transform="scale(0.015625)"/>
        <path id="ArialMT-6c" d="M 409 0 
L 409 4581 
L 972 4581 
L 972 0 
L 409 0 
z
" transform="scale(0.015625)"/>
        <path id="ArialMT-63" d="M 2588 1216 
L 3141 1144 
Q 3050 572 2676 248 
Q 2303 -75 1759 -75 
Q 1078 -75 664 370 
Q 250 816 250 1647 
Q 250 2184 428 2587 
Q 606 2991 970 3192 
Q 1334 3394 1763 3394 
Q 2303 3394 2647 3120 
Q 2991 2847 3088 2344 
L 2541 2259 
Q 2463 2594 2264 2762 
Q 2066 2931 1784 2931 
Q 1359 2931 1093 2626 
Q 828 2322 828 1663 
Q 828 994 1084 691 
Q 1341 388 1753 388 
Q 2084 388 2306 591 
Q 2528 794 2588 1216 
z
" transform="scale(0.015625)"/>
        <path id="ArialMT-20" transform="scale(0.015625)"/>
        <path id="ArialMT-61" d="M 2588 409 
Q 2275 144 1986 34 
Q 1697 -75 1366 -75 
Q 819 -75 525 192 
Q 231 459 231 875 
Q 231 1119 342 1320 
Q 453 1522 633 1644 
Q 813 1766 1038 1828 
Q 1203 1872 1538 1913 
Q 2219 1994 2541 2106 
Q 2544 2222 2544 2253 
Q 2544 2597 2384 2738 
Q 2169 2928 1744 2928 
Q 1347 2928 1158 2789 
Q 969 2650 878 2297 
L 328 2372 
Q 403 2725 575 2942 
Q 747 3159 1072 3276 
Q 1397 3394 1825 3394 
Q 2250 3394 2515 3294 
Q 2781 3194 2906 3042 
Q 3031 2891 3081 2659 
Q 3109 2516 3109 2141 
L 3109 1391 
Q 3109 606 3145 398 
Q 3181 191 3288 0 
L 2700 0 
Q 2613 175 2588 409 
z
M 2541 1666 
Q 2234 1541 1622 1453 
Q 1275 1403 1131 1340 
Q 988 1278 909 1158 
Q 831 1038 831 891 
Q 831 666 1001 516 
Q 1172 366 1500 366 
Q 1825 366 2078 508 
Q 2331 650 2450 897 
Q 2541 1088 2541 1459 
L 2541 1666 
z
" transform="scale(0.015625)"/>
        <path id="ArialMT-64" d="M 2575 0 
L 2575 419 
Q 2259 -75 1647 -75 
Q 1250 -75 917 144 
Q 584 363 401 755 
Q 219 1147 219 1656 
Q 219 2153 384 2558 
Q 550 2963 881 3178 
Q 1213 3394 1622 3394 
Q 1922 3394 2156 3267 
Q 2391 3141 2538 2938 
L 2538 4581 
L 3097 4581 
L 3097 0 
L 2575 0 
z
M 797 1656 
Q 797 1019 1065 703 
Q 1334 388 1700 388 
Q 2069 388 2326 689 
Q 2584 991 2584 1609 
Q 2584 2291 2321 2609 
Q 2059 2928 1675 2928 
Q 1300 2928 1048 2622 
Q 797 2316 797 1656 
z
" transform="scale(0.015625)"/>
       </defs>
       <use xlink:href="#ArialMT-54"/>
       <use xlink:href="#ArialMT-69" transform="translate(57.333984 0)"/>
       <use xlink:href="#ArialMT-67" transform="translate(79.550781 0)"/>
       <use xlink:href="#ArialMT-6c" transform="translate(135.166016 0)"/>
       <use xlink:href="#ArialMT-69" transform="translate(157.382812 0)"/>
       <use xlink:href="#ArialMT-63" transform="translate(179.599609 0)"/>
       <use xlink:href="#ArialMT-20" transform="translate(229.599609 0)"/>
       <use xlink:href="#ArialMT-61" transform="translate(257.382812 0)"/>
       <use xlink:href="#ArialMT-63" transform="translate(312.998047 0)"/>
       <use xlink:href="#ArialMT-69" transform="translate(362.998047 0)"/>
       <use xlink:href="#ArialMT-64" transform="translate(385.214844 0)"/>
      </g>
     </g>
    </g>
    <g id="xtick_2">
     <g id="text_2">
      <!-- Caprolactone -->
      <g style="fill: #262626" transform="translate(297.976365 693.138338) rotate(-30) scale(0.25 -0.25)">
       <defs>
        <path id="ArialMT-43" d="M 3763 1606 
L 4369 1453 
Q 4178 706 3683 314 
Q 3188 -78 2472 -78 
Q 1731 -78 1267 223 
Q 803 525 561 1097 
Q 319 1669 319 2325 
Q 319 3041 592 3573 
Q 866 4106 1370 4382 
Q 1875 4659 2481 4659 
Q 3169 4659 3637 4309 
Q 4106 3959 4291 3325 
L 3694 3184 
Q 3534 3684 3231 3912 
Q 2928 4141 2469 4141 
Q 1941 4141 1586 3887 
Q 1231 3634 1087 3207 
Q 944 2781 944 2328 
Q 944 1744 1114 1308 
Q 1284 872 1643 656 
Q 2003 441 2422 441 
Q 2931 441 3284 734 
Q 3638 1028 3763 1606 
z
" transform="scale(0.015625)"/>
        <path id="ArialMT-70" d="M 422 -1272 
L 422 3319 
L 934 3319 
L 934 2888 
Q 1116 3141 1344 3267 
Q 1572 3394 1897 3394 
Q 2322 3394 2647 3175 
Q 2972 2956 3137 2557 
Q 3303 2159 3303 1684 
Q 3303 1175 3120 767 
Q 2938 359 2589 142 
Q 2241 -75 1856 -75 
Q 1575 -75 1351 44 
Q 1128 163 984 344 
L 984 -1272 
L 422 -1272 
z
M 931 1641 
Q 931 1000 1190 694 
Q 1450 388 1819 388 
Q 2194 388 2461 705 
Q 2728 1022 2728 1688 
Q 2728 2322 2467 2637 
Q 2206 2953 1844 2953 
Q 1484 2953 1207 2617 
Q 931 2281 931 1641 
z
" transform="scale(0.015625)"/>
        <path id="ArialMT-72" d="M 416 0 
L 416 3319 
L 922 3319 
L 922 2816 
Q 1116 3169 1280 3281 
Q 1444 3394 1641 3394 
Q 1925 3394 2219 3213 
L 2025 2691 
Q 1819 2813 1613 2813 
Q 1428 2813 1281 2702 
Q 1134 2591 1072 2394 
Q 978 2094 978 1738 
L 978 0 
L 416 0 
z
" transform="scale(0.015625)"/>
        <path id="ArialMT-6f" d="M 213 1659 
Q 213 2581 725 3025 
Q 1153 3394 1769 3394 
Q 2453 3394 2887 2945 
Q 3322 2497 3322 1706 
Q 3322 1066 3130 698 
Q 2938 331 2570 128 
Q 2203 -75 1769 -75 
Q 1072 -75 642 372 
Q 213 819 213 1659 
z
M 791 1659 
Q 791 1022 1069 705 
Q 1347 388 1769 388 
Q 2188 388 2466 706 
Q 2744 1025 2744 1678 
Q 2744 2294 2464 2611 
Q 2184 2928 1769 2928 
Q 1347 2928 1069 2612 
Q 791 2297 791 1659 
z
" transform="scale(0.015625)"/>
        <path id="ArialMT-74" d="M 1650 503 
L 1731 6 
Q 1494 -44 1306 -44 
Q 1000 -44 831 53 
Q 663 150 594 308 
Q 525 466 525 972 
L 525 2881 
L 113 2881 
L 113 3319 
L 525 3319 
L 525 4141 
L 1084 4478 
L 1084 3319 
L 1650 3319 
L 1650 2881 
L 1084 2881 
L 1084 941 
Q 1084 700 1114 631 
Q 1144 563 1211 522 
Q 1278 481 1403 481 
Q 1497 481 1650 503 
z
" transform="scale(0.015625)"/>
        <path id="ArialMT-6e" d="M 422 0 
L 422 3319 
L 928 3319 
L 928 2847 
Q 1294 3394 1984 3394 
Q 2284 3394 2536 3286 
Q 2788 3178 2913 3003 
Q 3038 2828 3088 2588 
Q 3119 2431 3119 2041 
L 3119 0 
L 2556 0 
L 2556 2019 
Q 2556 2363 2490 2533 
Q 2425 2703 2258 2804 
Q 2091 2906 1866 2906 
Q 1506 2906 1245 2678 
Q 984 2450 984 1813 
L 984 0 
L 422 0 
z
" transform="scale(0.015625)"/>
        <path id="ArialMT-65" d="M 2694 1069 
L 3275 997 
Q 3138 488 2766 206 
Q 2394 -75 1816 -75 
Q 1088 -75 661 373 
Q 234 822 234 1631 
Q 234 2469 665 2931 
Q 1097 3394 1784 3394 
Q 2450 3394 2872 2941 
Q 3294 2488 3294 1666 
Q 3294 1616 3291 1516 
L 816 1516 
Q 847 969 1125 678 
Q 1403 388 1819 388 
Q 2128 388 2347 550 
Q 2566 713 2694 1069 
z
M 847 1978 
L 2700 1978 
Q 2663 2397 2488 2606 
Q 2219 2931 1791 2931 
Q 1403 2931 1139 2672 
Q 875 2413 847 1978 
z
" transform="scale(0.015625)"/>
       </defs>
       <use xlink:href="#ArialMT-43"/>
       <use xlink:href="#ArialMT-61" transform="translate(72.216797 0)"/>
       <use xlink:href="#ArialMT-70" transform="translate(127.832031 0)"/>
       <use xlink:href="#ArialMT-72" transform="translate(183.447266 0)"/>
       <use xlink:href="#ArialMT-6f" transform="translate(216.748047 0)"/>
       <use xlink:href="#ArialMT-6c" transform="translate(272.363281 0)"/>
       <use xlink:href="#ArialMT-61" transform="translate(294.580078 0)"/>
       <use xlink:href="#ArialMT-63" transform="translate(350.195312 0)"/>
       <use xlink:href="#ArialMT-74" transform="translate(400.195312 0)"/>
       <use xlink:href="#ArialMT-6f" transform="translate(427.978516 0)"/>
       <use xlink:href="#ArialMT-6e" transform="translate(483.59375 0)"/>
       <use xlink:href="#ArialMT-65" transform="translate(539.208984 0)"/>
      </g>
     </g>
    </g>
    <g id="xtick_3">
     <g id="text_3">
      <!-- γ-butyrolactone -->
      <g style="fill: #262626" transform="translate(441.242822 703.981893) rotate(-30) scale(0.25 -0.25)">
       <defs>
        <path id="ArialMT-3b3" d="M 78 3319 
L 669 3319 
L 1597 703 
L 2547 3319 
L 3122 3319 
L 1881 0 
L 1881 -1272 
L 1309 -1272 
L 1309 0 
L 78 3319 
z
" transform="scale(0.015625)"/>
        <path id="ArialMT-2d" d="M 203 1375 
L 203 1941 
L 1931 1941 
L 1931 1375 
L 203 1375 
z
" transform="scale(0.015625)"/>
        <path id="ArialMT-62" d="M 941 0 
L 419 0 
L 419 4581 
L 981 4581 
L 981 2947 
Q 1338 3394 1891 3394 
Q 2197 3394 2470 3270 
Q 2744 3147 2920 2923 
Q 3097 2700 3197 2384 
Q 3297 2069 3297 1709 
Q 3297 856 2875 390 
Q 2453 -75 1863 -75 
Q 1275 -75 941 416 
L 941 0 
z
M 934 1684 
Q 934 1088 1097 822 
Q 1363 388 1816 388 
Q 2184 388 2453 708 
Q 2722 1028 2722 1663 
Q 2722 2313 2464 2622 
Q 2206 2931 1841 2931 
Q 1472 2931 1203 2611 
Q 934 2291 934 1684 
z
" transform="scale(0.015625)"/>
        <path id="ArialMT-75" d="M 2597 0 
L 2597 488 
Q 2209 -75 1544 -75 
Q 1250 -75 995 37 
Q 741 150 617 320 
Q 494 491 444 738 
Q 409 903 409 1263 
L 409 3319 
L 972 3319 
L 972 1478 
Q 972 1038 1006 884 
Q 1059 663 1231 536 
Q 1403 409 1656 409 
Q 1909 409 2131 539 
Q 2353 669 2445 892 
Q 2538 1116 2538 1541 
L 2538 3319 
L 3100 3319 
L 3100 0 
L 2597 0 
z
" transform="scale(0.015625)"/>
        <path id="ArialMT-79" d="M 397 -1278 
L 334 -750 
Q 519 -800 656 -800 
Q 844 -800 956 -737 
Q 1069 -675 1141 -563 
Q 1194 -478 1313 -144 
Q 1328 -97 1363 -6 
L 103 3319 
L 709 3319 
L 1400 1397 
Q 1534 1031 1641 628 
Q 1738 1016 1872 1384 
L 2581 3319 
L 3144 3319 
L 1881 -56 
Q 1678 -603 1566 -809 
Q 1416 -1088 1222 -1217 
Q 1028 -1347 759 -1347 
Q 597 -1347 397 -1278 
z
" transform="scale(0.015625)"/>
       </defs>
       <use xlink:href="#ArialMT-3b3"/>
       <use xlink:href="#ArialMT-2d" transform="translate(50 0)"/>
       <use xlink:href="#ArialMT-62" transform="translate(83.300781 0)"/>
       <use xlink:href="#ArialMT-75" transform="translate(138.916016 0)"/>
       <use xlink:href="#ArialMT-74" transform="translate(194.53125 0)"/>
       <use xlink:href="#ArialMT-79" transform="translate(222.314453 0)"/>
       <use xlink:href="#ArialMT-72" transform="translate(272.314453 0)"/>
       <use xlink:href="#ArialMT-6f" transform="translate(305.615234 0)"/>
       <use xlink:href="#ArialMT-6c" transform="translate(361.230469 0)"/>
       <use xlink:href="#ArialMT-61" transform="translate(383.447266 0)"/>
       <use xlink:href="#ArialMT-63" transform="translate(439.0625 0)"/>
       <use xlink:href="#ArialMT-74" transform="translate(489.0625 0)"/>
       <use xlink:href="#ArialMT-6f" transform="translate(516.845703 0)"/>
       <use xlink:href="#ArialMT-6e" transform="translate(572.460938 0)"/>
       <use xlink:href="#ArialMT-65" transform="translate(628.076172 0)"/>
      </g>
     </g>
    </g>
    <g id="xtick_4">
     <g id="text_4">
      <!-- Acrylic -->
      <g style="fill: #262626" transform="translate(629.799931 655.331502) rotate(-30) scale(0.25 -0.25)">
       <defs>
        <path id="ArialMT-41" d="M -9 0 
L 1750 4581 
L 2403 4581 
L 4278 0 
L 3588 0 
L 3053 1388 
L 1138 1388 
L 634 0 
L -9 0 
z
M 1313 1881 
L 2866 1881 
L 2388 3150 
Q 2169 3728 2063 4100 
Q 1975 3659 1816 3225 
L 1313 1881 
z
" transform="scale(0.015625)"/>
       </defs>
       <use xlink:href="#ArialMT-41"/>
       <use xlink:href="#ArialMT-63" transform="translate(66.699219 0)"/>
       <use xlink:href="#ArialMT-72" transform="translate(116.699219 0)"/>
       <use xlink:href="#ArialMT-79" transform="translate(150 0)"/>
       <use xlink:href="#ArialMT-6c" transform="translate(200 0)"/>
       <use xlink:href="#ArialMT-69" transform="translate(222.216797 0)"/>
       <use xlink:href="#ArialMT-63" transform="translate(244.433594 0)"/>
      </g>
      <!-- acid -->
      <g style="fill: #262626" transform="translate(655.183611 671.547327) rotate(-30) scale(0.25 -0.25)">
       <use xlink:href="#ArialMT-61"/>
       <use xlink:href="#ArialMT-63" transform="translate(55.615234 0)"/>
       <use xlink:href="#ArialMT-69" transform="translate(105.615234 0)"/>
       <use xlink:href="#ArialMT-64" transform="translate(127.832031 0)"/>
      </g>
     </g>
    </g>
    <g id="xtick_5">
     <g id="text_5">
      <!-- Muconic -->
      <g style="fill: #262626" transform="translate(774.474755 665.069784) rotate(-30) scale(0.25 -0.25)">
       <defs>
        <path id="ArialMT-4d" d="M 475 0 
L 475 4581 
L 1388 4581 
L 2472 1338 
Q 2622 884 2691 659 
Q 2769 909 2934 1394 
L 4031 4581 
L 4847 4581 
L 4847 0 
L 4263 0 
L 4263 3834 
L 2931 0 
L 2384 0 
L 1059 3900 
L 1059 0 
L 475 0 
z
" transform="scale(0.015625)"/>
       </defs>
       <use xlink:href="#ArialMT-4d"/>
       <use xlink:href="#ArialMT-75" transform="translate(83.300781 0)"/>
       <use xlink:href="#ArialMT-63" transform="translate(138.916016 0)"/>
       <use xlink:href="#ArialMT-6f" transform="translate(188.916016 0)"/>
       <use xlink:href="#ArialMT-6e" transform="translate(244.53125 0)"/>
       <use xlink:href="#ArialMT-69" transform="translate(300.146484 0)"/>
       <use xlink:href="#ArialMT-63" transform="translate(322.363281 0)"/>
      </g>
      <!-- acid -->
      <g style="fill: #262626" transform="translate(808.14555 676.162749) rotate(-30) scale(0.25 -0.25)">
       <use xlink:href="#ArialMT-61"/>
       <use xlink:href="#ArialMT-63" transform="translate(55.615234 0)"/>
       <use xlink:href="#ArialMT-69" transform="translate(105.615234 0)"/>
       <use xlink:href="#ArialMT-64" transform="translate(127.832031 0)"/>
      </g>
     </g>
    </g>
    <g id="xtick_6">
     <g id="text_6">
      <!-- Limonene -->
      <g style="fill: #262626" transform="translate(926.886126 673.423299) rotate(-30) scale(0.25 -0.25)">
       <defs>
        <path id="ArialMT-4c" d="M 469 0 
L 469 4581 
L 1075 4581 
L 1075 541 
L 3331 541 
L 3331 0 
L 469 0 
z
" transform="scale(0.015625)"/>
        <path id="ArialMT-6d" d="M 422 0 
L 422 3319 
L 925 3319 
L 925 2853 
Q 1081 3097 1340 3245 
Q 1600 3394 1931 3394 
Q 2300 3394 2536 3241 
Q 2772 3088 2869 2813 
Q 3263 3394 3894 3394 
Q 4388 3394 4653 3120 
Q 4919 2847 4919 2278 
L 4919 0 
L 4359 0 
L 4359 2091 
Q 4359 2428 4304 2576 
Q 4250 2725 4106 2815 
Q 3963 2906 3769 2906 
Q 3419 2906 3187 2673 
Q 2956 2441 2956 1928 
L 2956 0 
L 2394 0 
L 2394 2156 
Q 2394 2531 2256 2718 
Q 2119 2906 1806 2906 
Q 1569 2906 1367 2781 
Q 1166 2656 1075 2415 
Q 984 2175 984 1722 
L 984 0 
L 422 0 
z
" transform="scale(0.015625)"/>
       </defs>
       <use xlink:href="#ArialMT-4c"/>
       <use xlink:href="#ArialMT-69" transform="translate(55.615234 0)"/>
       <use xlink:href="#ArialMT-6d" transform="translate(77.832031 0)"/>
       <use xlink:href="#ArialMT-6f" transform="translate(161.132812 0)"/>
       <use xlink:href="#ArialMT-6e" transform="translate(216.748047 0)"/>
       <use xlink:href="#ArialMT-65" transform="translate(272.363281 0)"/>
       <use xlink:href="#ArialMT-6e" transform="translate(327.978516 0)"/>
       <use xlink:href="#ArialMT-65" transform="translate(383.59375 0)"/>
      </g>
     </g>
    </g>
    <g id="xtick_7">
     <g id="text_7">
      <!-- Levulinic -->
      <g style="fill: #262626" transform="translate(1078.731876 667.163534) rotate(-30) scale(0.25 -0.25)">
       <defs>
        <path id="ArialMT-76" d="M 1344 0 
L 81 3319 
L 675 3319 
L 1388 1331 
Q 1503 1009 1600 663 
Q 1675 925 1809 1294 
L 2547 3319 
L 3125 3319 
L 1869 0 
L 1344 0 
z
" transform="scale(0.015625)"/>
       </defs>
       <use xlink:href="#ArialMT-4c"/>
       <use xlink:href="#ArialMT-65" transform="translate(55.615234 0)"/>
       <use xlink:href="#ArialMT-76" transform="translate(111.230469 0)"/>
       <use xlink:href="#ArialMT-75" transform="translate(161.230469 0)"/>
       <use xlink:href="#ArialMT-6c" transform="translate(216.845703 0)"/>
       <use xlink:href="#ArialMT-69" transform="translate(239.0625 0)"/>
       <use xlink:href="#ArialMT-6e" transform="translate(261.279297 0)"/>
       <use xlink:href="#ArialMT-69" transform="translate(316.894531 0)"/>
       <use xlink:href="#ArialMT-63" transform="translate(339.111328 0)"/>
      </g>
      <!-- acid   -->
      <g style="fill: #262626" transform="translate(1108.201095 680.68228) rotate(-30) scale(0.25 -0.25)">
       <use xlink:href="#ArialMT-61"/>
       <use xlink:href="#ArialMT-63" transform="translate(55.615234 0)"/>
       <use xlink:href="#ArialMT-69" transform="translate(105.615234 0)"/>
       <use xlink:href="#ArialMT-64" transform="translate(127.832031 0)"/>
       <use xlink:href="#ArialMT-20" transform="translate(183.447266 0)"/>
       <use xlink:href="#ArialMT-20" transform="translate(211.230469 0)"/>
      </g>
     </g>
    </g>
    <g id="xtick_8">
     <g id="text_8">
      <!-- Adipic -->
      <g style="fill: #262626" transform="translate(1244.403924 652.571737) rotate(-30) scale(0.25 -0.25)">
       <use xlink:href="#ArialMT-41"/>
       <use xlink:href="#ArialMT-64" transform="translate(66.699219 0)"/>
       <use xlink:href="#ArialMT-69" transform="translate(122.314453 0)"/>
       <use xlink:href="#ArialMT-70" transform="translate(144.53125 0)"/>
       <use xlink:href="#ArialMT-69" transform="translate(200.146484 0)"/>
       <use xlink:href="#ArialMT-63" transform="translate(222.363281 0)"/>
      </g>
      <!-- acid   -->
      <g style="fill: #262626" transform="translate(1261.236276 673.386382) rotate(-30) scale(0.25 -0.25)">
       <use xlink:href="#ArialMT-61"/>
       <use xlink:href="#ArialMT-63" transform="translate(55.615234 0)"/>
       <use xlink:href="#ArialMT-69" transform="translate(105.615234 0)"/>
       <use xlink:href="#ArialMT-64" transform="translate(127.832031 0)"/>
       <use xlink:href="#ArialMT-20" transform="translate(183.447266 0)"/>
       <use xlink:href="#ArialMT-20" transform="translate(211.230469 0)"/>
      </g>
     </g>
    </g>
    <g id="xtick_9">
     <g id="text_9">
      <!-- Butanone -->
      <g style="fill: #262626" transform="translate(1387.185837 672.044393) rotate(-30) scale(0.25 -0.25)">
       <defs>
        <path id="ArialMT-42" d="M 469 0 
L 469 4581 
L 2188 4581 
Q 2713 4581 3030 4442 
Q 3347 4303 3526 4014 
Q 3706 3725 3706 3409 
Q 3706 3116 3547 2856 
Q 3388 2597 3066 2438 
Q 3481 2316 3704 2022 
Q 3928 1728 3928 1328 
Q 3928 1006 3792 729 
Q 3656 453 3456 303 
Q 3256 153 2954 76 
Q 2653 0 2216 0 
L 469 0 
z
M 1075 2656 
L 2066 2656 
Q 2469 2656 2644 2709 
Q 2875 2778 2992 2937 
Q 3109 3097 3109 3338 
Q 3109 3566 3000 3739 
Q 2891 3913 2687 3977 
Q 2484 4041 1991 4041 
L 1075 4041 
L 1075 2656 
z
M 1075 541 
L 2216 541 
Q 2509 541 2628 563 
Q 2838 600 2978 687 
Q 3119 775 3209 942 
Q 3300 1109 3300 1328 
Q 3300 1584 3169 1773 
Q 3038 1963 2805 2039 
Q 2572 2116 2134 2116 
L 1075 2116 
L 1075 541 
z
" transform="scale(0.015625)"/>
       </defs>
       <use xlink:href="#ArialMT-42"/>
       <use xlink:href="#ArialMT-75" transform="translate(66.699219 0)"/>
       <use xlink:href="#ArialMT-74" transform="translate(122.314453 0)"/>
       <use xlink:href="#ArialMT-61" transform="translate(150.097656 0)"/>
       <use xlink:href="#ArialMT-6e" transform="translate(205.712891 0)"/>
       <use xlink:href="#ArialMT-6f" transform="translate(261.328125 0)"/>
       <use xlink:href="#ArialMT-6e" transform="translate(316.943359 0)"/>
       <use xlink:href="#ArialMT-65" transform="translate(372.558594 0)"/>
      </g>
     </g>
    </g>
    <g id="xtick_10">
     <g id="text_10">
      <!-- Heptane -->
      <g style="fill: #262626" transform="translate(1545.643825 665.782674) rotate(-30) scale(0.25 -0.25)">
       <defs>
        <path id="ArialMT-48" d="M 513 0 
L 513 4581 
L 1119 4581 
L 1119 2700 
L 3500 2700 
L 3500 4581 
L 4106 4581 
L 4106 0 
L 3500 0 
L 3500 2159 
L 1119 2159 
L 1119 0 
L 513 0 
z
" transform="scale(0.015625)"/>
       </defs>
       <use xlink:href="#ArialMT-48"/>
       <use xlink:href="#ArialMT-65" transform="translate(72.216797 0)"/>
       <use xlink:href="#ArialMT-70" transform="translate(127.832031 0)"/>
       <use xlink:href="#ArialMT-74" transform="translate(183.447266 0)"/>
       <use xlink:href="#ArialMT-61" transform="translate(211.230469 0)"/>
       <use xlink:href="#ArialMT-6e" transform="translate(266.845703 0)"/>
       <use xlink:href="#ArialMT-65" transform="translate(322.460938 0)"/>
      </g>
     </g>
    </g>
    <g id="xtick_11">
     <g id="text_11">
      <!-- 1,4-Butanediol -->
      <g style="fill: #262626" transform="translate(1669.794015 699.13619) rotate(-30) scale(0.25 -0.25)">
       <defs>
        <path id="ArialMT-31" d="M 2384 0 
L 1822 0 
L 1822 3584 
Q 1619 3391 1289 3197 
Q 959 3003 697 2906 
L 697 3450 
Q 1169 3672 1522 3987 
Q 1875 4303 2022 4600 
L 2384 4600 
L 2384 0 
z
" transform="scale(0.015625)"/>
        <path id="ArialMT-2c" d="M 569 0 
L 569 641 
L 1209 641 
L 1209 0 
Q 1209 -353 1084 -570 
Q 959 -788 688 -906 
L 531 -666 
Q 709 -588 793 -436 
Q 878 -284 888 0 
L 569 0 
z
" transform="scale(0.015625)"/>
        <path id="ArialMT-34" d="M 2069 0 
L 2069 1097 
L 81 1097 
L 81 1613 
L 2172 4581 
L 2631 4581 
L 2631 1613 
L 3250 1613 
L 3250 1097 
L 2631 1097 
L 2631 0 
L 2069 0 
z
M 2069 1613 
L 2069 3678 
L 634 1613 
L 2069 1613 
z
" transform="scale(0.015625)"/>
       </defs>
       <use xlink:href="#ArialMT-31"/>
       <use xlink:href="#ArialMT-2c" transform="translate(55.615234 0)"/>
       <use xlink:href="#ArialMT-34" transform="translate(83.398438 0)"/>
       <use xlink:href="#ArialMT-2d" transform="translate(139.013672 0)"/>
       <use xlink:href="#ArialMT-42" transform="translate(172.314453 0)"/>
       <use xlink:href="#ArialMT-75" transform="translate(239.013672 0)"/>
       <use xlink:href="#ArialMT-74" transform="translate(294.628906 0)"/>
       <use xlink:href="#ArialMT-61" transform="translate(322.412109 0)"/>
       <use xlink:href="#ArialMT-6e" transform="translate(378.027344 0)"/>
       <use xlink:href="#ArialMT-65" transform="translate(433.642578 0)"/>
       <use xlink:href="#ArialMT-64" transform="translate(489.257812 0)"/>
       <use xlink:href="#ArialMT-69" transform="translate(544.873047 0)"/>
       <use xlink:href="#ArialMT-6f" transform="translate(567.089844 0)"/>
       <use xlink:href="#ArialMT-6c" transform="translate(622.705078 0)"/>
      </g>
     </g>
    </g>
    <g id="xtick_12">
     <g id="text_12">
      <!-- Maleic -->
      <g style="fill: #262626" transform="translate(1854.748322 654.645956) rotate(-30) scale(0.25 -0.25)">
       <use xlink:href="#ArialMT-4d"/>
       <use xlink:href="#ArialMT-61" transform="translate(83.300781 0)"/>
       <use xlink:href="#ArialMT-6c" transform="translate(138.916016 0)"/>
       <use xlink:href="#ArialMT-65" transform="translate(161.132812 0)"/>
       <use xlink:href="#ArialMT-69" transform="translate(216.748047 0)"/>
       <use xlink:href="#ArialMT-63" transform="translate(238.964844 0)"/>
      </g>
      <!-- acid -->
      <g style="fill: #262626" transform="translate(1879.391817 670.950835) rotate(-30) scale(0.25 -0.25)">
       <use xlink:href="#ArialMT-61"/>
       <use xlink:href="#ArialMT-63" transform="translate(55.615234 0)"/>
       <use xlink:href="#ArialMT-69" transform="translate(105.615234 0)"/>
       <use xlink:href="#ArialMT-64" transform="translate(127.832031 0)"/>
      </g>
     </g>
    </g>
    <g id="xtick_13">
     <g id="text_13">
      <!-- Amino- -->
      <g style="fill: #262626" transform="translate(2004.702852 669.931112) rotate(-30) scale(0.25 -0.25)">
       <use xlink:href="#ArialMT-41"/>
       <use xlink:href="#ArialMT-6d" transform="translate(66.699219 0)"/>
       <use xlink:href="#ArialMT-69" transform="translate(150 0)"/>
       <use xlink:href="#ArialMT-6e" transform="translate(172.216797 0)"/>
       <use xlink:href="#ArialMT-6f" transform="translate(227.832031 0)"/>
       <use xlink:href="#ArialMT-2d" transform="translate(283.447266 0)"/>
      </g>
      <!-- butyric acid -->
      <g style="fill: #262626" transform="translate(1997.464096 704.643218) rotate(-30) scale(0.25 -0.25)">
       <use xlink:href="#ArialMT-62"/>
       <use xlink:href="#ArialMT-75" transform="translate(55.615234 0)"/>
       <use xlink:href="#ArialMT-74" transform="translate(111.230469 0)"/>
       <use xlink:href="#ArialMT-79" transform="translate(139.013672 0)"/>
       <use xlink:href="#ArialMT-72" transform="translate(189.013672 0)"/>
       <use xlink:href="#ArialMT-69" transform="translate(222.314453 0)"/>
       <use xlink:href="#ArialMT-63" transform="translate(244.53125 0)"/>
       <use xlink:href="#ArialMT-20" transform="translate(294.53125 0)"/>
       <use xlink:href="#ArialMT-61" transform="translate(322.314453 0)"/>
       <use xlink:href="#ArialMT-63" transform="translate(377.929688 0)"/>
       <use xlink:href="#ArialMT-69" transform="translate(427.929688 0)"/>
       <use xlink:href="#ArialMT-64" transform="translate(450.146484 0)"/>
      </g>
     </g>
    </g>
    <g id="xtick_14">
     <g id="text_14">
      <!-- Nonadecene -->
      <g style="fill: #262626" transform="translate(2137.319625 689.413534) rotate(-30) scale(0.25 -0.25)">
       <defs>
        <path id="ArialMT-4e" d="M 488 0 
L 488 4581 
L 1109 4581 
L 3516 984 
L 3516 4581 
L 4097 4581 
L 4097 0 
L 3475 0 
L 1069 3600 
L 1069 0 
L 488 0 
z
" transform="scale(0.015625)"/>
       </defs>
       <use xlink:href="#ArialMT-4e"/>
       <use xlink:href="#ArialMT-6f" transform="translate(72.216797 0)"/>
       <use xlink:href="#ArialMT-6e" transform="translate(127.832031 0)"/>
       <use xlink:href="#ArialMT-61" transform="translate(183.447266 0)"/>
       <use xlink:href="#ArialMT-64" transform="translate(239.0625 0)"/>
       <use xlink:href="#ArialMT-65" transform="translate(294.677734 0)"/>
       <use xlink:href="#ArialMT-63" transform="translate(350.292969 0)"/>
       <use xlink:href="#ArialMT-65" transform="translate(400.292969 0)"/>
       <use xlink:href="#ArialMT-6e" transform="translate(455.908203 0)"/>
       <use xlink:href="#ArialMT-65" transform="translate(511.523438 0)"/>
      </g>
     </g>
    </g>
    <g id="xtick_15">
     <g id="text_15">
      <!-- Sphingosine -->
      <g style="fill: #262626" transform="translate(2292.164211 687.591463) rotate(-30) scale(0.25 -0.25)">
       <defs>
        <path id="ArialMT-53" d="M 288 1472 
L 859 1522 
Q 900 1178 1048 958 
Q 1197 738 1509 602 
Q 1822 466 2213 466 
Q 2559 466 2825 569 
Q 3091 672 3220 851 
Q 3350 1031 3350 1244 
Q 3350 1459 3225 1620 
Q 3100 1781 2813 1891 
Q 2628 1963 1997 2114 
Q 1366 2266 1113 2400 
Q 784 2572 623 2826 
Q 463 3081 463 3397 
Q 463 3744 659 4045 
Q 856 4347 1234 4503 
Q 1613 4659 2075 4659 
Q 2584 4659 2973 4495 
Q 3363 4331 3572 4012 
Q 3781 3694 3797 3291 
L 3216 3247 
Q 3169 3681 2898 3903 
Q 2628 4125 2100 4125 
Q 1550 4125 1298 3923 
Q 1047 3722 1047 3438 
Q 1047 3191 1225 3031 
Q 1400 2872 2139 2705 
Q 2878 2538 3153 2413 
Q 3553 2228 3743 1945 
Q 3934 1663 3934 1294 
Q 3934 928 3725 604 
Q 3516 281 3123 101 
Q 2731 -78 2241 -78 
Q 1619 -78 1198 103 
Q 778 284 539 648 
Q 300 1013 288 1472 
z
" transform="scale(0.015625)"/>
        <path id="ArialMT-68" d="M 422 0 
L 422 4581 
L 984 4581 
L 984 2938 
Q 1378 3394 1978 3394 
Q 2347 3394 2619 3248 
Q 2891 3103 3008 2847 
Q 3125 2591 3125 2103 
L 3125 0 
L 2563 0 
L 2563 2103 
Q 2563 2525 2380 2717 
Q 2197 2909 1863 2909 
Q 1613 2909 1392 2779 
Q 1172 2650 1078 2428 
Q 984 2206 984 1816 
L 984 0 
L 422 0 
z
" transform="scale(0.015625)"/>
        <path id="ArialMT-73" d="M 197 991 
L 753 1078 
Q 800 744 1014 566 
Q 1228 388 1613 388 
Q 2000 388 2187 545 
Q 2375 703 2375 916 
Q 2375 1106 2209 1216 
Q 2094 1291 1634 1406 
Q 1016 1563 777 1677 
Q 538 1791 414 1992 
Q 291 2194 291 2438 
Q 291 2659 392 2848 
Q 494 3038 669 3163 
Q 800 3259 1026 3326 
Q 1253 3394 1513 3394 
Q 1903 3394 2198 3281 
Q 2494 3169 2634 2976 
Q 2775 2784 2828 2463 
L 2278 2388 
Q 2241 2644 2061 2787 
Q 1881 2931 1553 2931 
Q 1166 2931 1000 2803 
Q 834 2675 834 2503 
Q 834 2394 903 2306 
Q 972 2216 1119 2156 
Q 1203 2125 1616 2013 
Q 2213 1853 2448 1751 
Q 2684 1650 2818 1456 
Q 2953 1263 2953 975 
Q 2953 694 2789 445 
Q 2625 197 2315 61 
Q 2006 -75 1616 -75 
Q 969 -75 630 194 
Q 291 463 197 991 
z
" transform="scale(0.015625)"/>
       </defs>
       <use xlink:href="#ArialMT-53"/>
       <use xlink:href="#ArialMT-70" transform="translate(66.699219 0)"/>
       <use xlink:href="#ArialMT-68" transform="translate(122.314453 0)"/>
       <use xlink:href="#ArialMT-69" transform="translate(177.929688 0)"/>
       <use xlink:href="#ArialMT-6e" transform="translate(200.146484 0)"/>
       <use xlink:href="#ArialMT-67" transform="translate(255.761719 0)"/>
       <use xlink:href="#ArialMT-6f" transform="translate(311.376953 0)"/>
       <use xlink:href="#ArialMT-73" transform="translate(366.992188 0)"/>
       <use xlink:href="#ArialMT-69" transform="translate(416.992188 0)"/>
       <use xlink:href="#ArialMT-6e" transform="translate(439.208984 0)"/>
       <use xlink:href="#ArialMT-65" transform="translate(494.824219 0)"/>
      </g>
     </g>
    </g>
   </g>
   <g id="matplotlib.axis_2">
    <g id="ytick_1">
     <g id="text_16">
      <!-- 0.0 -->
      <g style="fill: #262626" transform="translate(47.645312 606.766415) scale(0.3 -0.3)">
       <defs>
        <path id="ArialMT-30" d="M 266 2259 
Q 266 3072 433 3567 
Q 600 4063 929 4331 
Q 1259 4600 1759 4600 
Q 2128 4600 2406 4451 
Q 2684 4303 2865 4023 
Q 3047 3744 3150 3342 
Q 3253 2941 3253 2259 
Q 3253 1453 3087 958 
Q 2922 463 2592 192 
Q 2263 -78 1759 -78 
Q 1097 -78 719 397 
Q 266 969 266 2259 
z
M 844 2259 
Q 844 1131 1108 757 
Q 1372 384 1759 384 
Q 2147 384 2411 759 
Q 2675 1134 2675 2259 
Q 2675 3391 2411 3762 
Q 2147 4134 1753 4134 
Q 1366 4134 1134 3806 
Q 844 3388 844 2259 
z
" transform="scale(0.015625)"/>
        <path id="ArialMT-2e" d="M 581 0 
L 581 641 
L 1222 641 
L 1222 0 
L 581 0 
z
" transform="scale(0.015625)"/>
       </defs>
       <use xlink:href="#ArialMT-30"/>
       <use xlink:href="#ArialMT-2e" transform="translate(55.615234 0)"/>
       <use xlink:href="#ArialMT-30" transform="translate(83.398438 0)"/>
      </g>
     </g>
    </g>
    <g id="ytick_2">
     <g id="text_17">
      <!-- 0.2 -->
      <g style="fill: #262626" transform="translate(47.645312 508.100453) scale(0.3 -0.3)">
       <defs>
        <path id="ArialMT-32" d="M 3222 541 
L 3222 0 
L 194 0 
Q 188 203 259 391 
Q 375 700 629 1000 
Q 884 1300 1366 1694 
Q 2113 2306 2375 2664 
Q 2638 3022 2638 3341 
Q 2638 3675 2398 3904 
Q 2159 4134 1775 4134 
Q 1369 4134 1125 3890 
Q 881 3647 878 3216 
L 300 3275 
Q 359 3922 746 4261 
Q 1134 4600 1788 4600 
Q 2447 4600 2831 4234 
Q 3216 3869 3216 3328 
Q 3216 3053 3103 2787 
Q 2991 2522 2730 2228 
Q 2469 1934 1863 1422 
Q 1356 997 1212 845 
Q 1069 694 975 541 
L 3222 541 
z
" transform="scale(0.015625)"/>
       </defs>
       <use xlink:href="#ArialMT-30"/>
       <use xlink:href="#ArialMT-2e" transform="translate(55.615234 0)"/>
       <use xlink:href="#ArialMT-32" transform="translate(83.398438 0)"/>
      </g>
     </g>
    </g>
    <g id="ytick_3">
     <g id="text_18">
      <!-- 0.4 -->
      <g style="fill: #262626" transform="translate(47.645312 409.434491) scale(0.3 -0.3)">
       <use xlink:href="#ArialMT-30"/>
       <use xlink:href="#ArialMT-2e" transform="translate(55.615234 0)"/>
       <use xlink:href="#ArialMT-34" transform="translate(83.398438 0)"/>
      </g>
     </g>
    </g>
    <g id="ytick_4">
     <g id="text_19">
      <!-- 0.6 -->
      <g style="fill: #262626" transform="translate(47.645312 310.76853) scale(0.3 -0.3)">
       <defs>
        <path id="ArialMT-36" d="M 3184 3459 
L 2625 3416 
Q 2550 3747 2413 3897 
Q 2184 4138 1850 4138 
Q 1581 4138 1378 3988 
Q 1113 3794 959 3422 
Q 806 3050 800 2363 
Q 1003 2672 1297 2822 
Q 1591 2972 1913 2972 
Q 2475 2972 2870 2558 
Q 3266 2144 3266 1488 
Q 3266 1056 3080 686 
Q 2894 316 2569 119 
Q 2244 -78 1831 -78 
Q 1128 -78 684 439 
Q 241 956 241 2144 
Q 241 3472 731 4075 
Q 1159 4600 1884 4600 
Q 2425 4600 2770 4297 
Q 3116 3994 3184 3459 
z
M 888 1484 
Q 888 1194 1011 928 
Q 1134 663 1356 523 
Q 1578 384 1822 384 
Q 2178 384 2434 671 
Q 2691 959 2691 1453 
Q 2691 1928 2437 2201 
Q 2184 2475 1800 2475 
Q 1419 2475 1153 2201 
Q 888 1928 888 1484 
z
" transform="scale(0.015625)"/>
       </defs>
       <use xlink:href="#ArialMT-30"/>
       <use xlink:href="#ArialMT-2e" transform="translate(55.615234 0)"/>
       <use xlink:href="#ArialMT-36" transform="translate(83.398438 0)"/>
      </g>
     </g>
    </g>
    <g id="ytick_5">
     <g id="text_20">
      <!-- 0.8 -->
      <g style="fill: #262626" transform="translate(47.645312 212.102568) scale(0.3 -0.3)">
       <defs>
        <path id="ArialMT-38" d="M 1131 2484 
Q 781 2613 612 2850 
Q 444 3088 444 3419 
Q 444 3919 803 4259 
Q 1163 4600 1759 4600 
Q 2359 4600 2725 4251 
Q 3091 3903 3091 3403 
Q 3091 3084 2923 2848 
Q 2756 2613 2416 2484 
Q 2838 2347 3058 2040 
Q 3278 1734 3278 1309 
Q 3278 722 2862 322 
Q 2447 -78 1769 -78 
Q 1091 -78 675 323 
Q 259 725 259 1325 
Q 259 1772 486 2073 
Q 713 2375 1131 2484 
z
M 1019 3438 
Q 1019 3113 1228 2906 
Q 1438 2700 1772 2700 
Q 2097 2700 2305 2904 
Q 2513 3109 2513 3406 
Q 2513 3716 2298 3927 
Q 2084 4138 1766 4138 
Q 1444 4138 1231 3931 
Q 1019 3725 1019 3438 
z
M 838 1322 
Q 838 1081 952 856 
Q 1066 631 1291 507 
Q 1516 384 1775 384 
Q 2178 384 2440 643 
Q 2703 903 2703 1303 
Q 2703 1709 2433 1975 
Q 2163 2241 1756 2241 
Q 1359 2241 1098 1978 
Q 838 1716 838 1322 
z
" transform="scale(0.015625)"/>
       </defs>
       <use xlink:href="#ArialMT-30"/>
       <use xlink:href="#ArialMT-2e" transform="translate(55.615234 0)"/>
       <use xlink:href="#ArialMT-38" transform="translate(83.398438 0)"/>
      </g>
     </g>
    </g>
    <g id="ytick_6">
     <g id="text_21">
      <!-- 1.0 -->
      <g style="fill: #262626" transform="translate(47.645312 113.436606) scale(0.3 -0.3)">
       <use xlink:href="#ArialMT-31"/>
       <use xlink:href="#ArialMT-2e" transform="translate(55.615234 0)"/>
       <use xlink:href="#ArialMT-30" transform="translate(83.398438 0)"/>
      </g>
     </g>
    </g>
    <g id="text_22">
     <!-- Chemical similarity score -->
     <g style="fill: #262626" transform="translate(36.278906 518.199083) rotate(-90) scale(0.35 -0.35)">
      <use xlink:href="#ArialMT-43"/>
      <use xlink:href="#ArialMT-68" transform="translate(72.216797 0)"/>
      <use xlink:href="#ArialMT-65" transform="translate(127.832031 0)"/>
      <use xlink:href="#ArialMT-6d" transform="translate(183.447266 0)"/>
      <use xlink:href="#ArialMT-69" transform="translate(266.748047 0)"/>
      <use xlink:href="#ArialMT-63" transform="translate(288.964844 0)"/>
      <use xlink:href="#ArialMT-61" transform="translate(338.964844 0)"/>
      <use xlink:href="#ArialMT-6c" transform="translate(394.580078 0)"/>
      <use xlink:href="#ArialMT-20" transform="translate(416.796875 0)"/>
      <use xlink:href="#ArialMT-73" transform="translate(444.580078 0)"/>
      <use xlink:href="#ArialMT-69" transform="translate(494.580078 0)"/>
      <use xlink:href="#ArialMT-6d" transform="translate(516.796875 0)"/>
      <use xlink:href="#ArialMT-69" transform="translate(600.097656 0)"/>
      <use xlink:href="#ArialMT-6c" transform="translate(622.314453 0)"/>
      <use xlink:href="#ArialMT-61" transform="translate(644.53125 0)"/>
      <use xlink:href="#ArialMT-72" transform="translate(700.146484 0)"/>
      <use xlink:href="#ArialMT-69" transform="translate(733.447266 0)"/>
      <use xlink:href="#ArialMT-74" transform="translate(755.664062 0)"/>
      <use xlink:href="#ArialMT-79" transform="translate(783.447266 0)"/>
      <use xlink:href="#ArialMT-20" transform="translate(833.447266 0)"/>
      <use xlink:href="#ArialMT-73" transform="translate(861.230469 0)"/>
      <use xlink:href="#ArialMT-63" transform="translate(911.230469 0)"/>
      <use xlink:href="#ArialMT-6f" transform="translate(961.230469 0)"/>
      <use xlink:href="#ArialMT-72" transform="translate(1016.845703 0)"/>
      <use xlink:href="#ArialMT-65" transform="translate(1050.146484 0)"/>
     </g>
    </g>
   </g>
   <g id="PathCollection_1">
    <defs>
     <path id="m785d1e6057" d="M 0 8.660254 
C 2.296726 8.660254 4.499694 7.747755 6.123724 6.123724 
C 7.747755 4.499694 8.660254 2.296726 8.660254 0 
C 8.660254 -2.296726 7.747755 -4.499694 6.123724 -6.123724 
C 4.499694 -7.747755 2.296726 -8.660254 0 -8.660254 
C -2.296726 -8.660254 -4.499694 -7.747755 -6.123724 -6.123724 
C -7.747755 -4.499694 -8.660254 -2.296726 -8.660254 0 
C -8.660254 2.296726 -7.747755 4.499694 -6.123724 6.123724 
C -4.499694 7.747755 -2.296726 8.660254 0 8.660254 
z
" style="stroke: #000000; stroke-opacity: 0.7"/>
    </defs>
    <g clip-path="url(#pda6126cab1)">
     <use xlink:href="#m785d1e6057" x="206.020526" y="102.699887" style="fill: #440154; fill-opacity: 0.7; stroke: #000000; stroke-opacity: 0.7"/>
    </g>
   </g>
   <g id="PathCollection_2">
    <g clip-path="url(#pda6126cab1)">
     <use xlink:href="#m785d1e6057" x="359.055707" y="102.699887" style="fill: #440154; fill-opacity: 0.7; stroke: #000000; stroke-opacity: 0.7"/>
    </g>
   </g>
   <g id="PathCollection_3">
    <g clip-path="url(#pda6126cab1)">
     <use xlink:href="#m785d1e6057" x="512.090888" y="102.699887" style="fill: #440154; fill-opacity: 0.7; stroke: #000000; stroke-opacity: 0.7"/>
    </g>
   </g>
   <g id="PathCollection_4">
    <g clip-path="url(#pda6126cab1)">
     <use xlink:href="#m785d1e6057" x="665.126069" y="236.426706" style="fill: #440154; fill-opacity: 0.7; stroke: #000000; stroke-opacity: 0.7"/>
    </g>
   </g>
   <g id="PathCollection_5">
    <defs>
     <path id="m8f7fba8af2" d="M 0 -15.811388 
L -3.549878 -4.885988 
L -15.037524 -4.885988 
L -5.743823 1.866281 
L -9.293701 12.791682 
L -0 6.039413 
L 9.293701 12.791682 
L 5.743823 1.866281 
L 15.037524 -4.885988 
L 3.549878 -4.885988 
z
" style="stroke: #000000; stroke-opacity: 0.7"/>
    </defs>
    <g clip-path="url(#pda6126cab1)">
     <use xlink:href="#m8f7fba8af2" x="716.137796" y="102.699887" style="fill: #440154; fill-opacity: 0.7; stroke: #000000; stroke-opacity: 0.7"/>
    </g>
   </g>
   <g id="PathCollection_6">
    <g clip-path="url(#pda6126cab1)">
     <use xlink:href="#m785d1e6057" x="818.16125" y="156.90141" style="fill: #440154; fill-opacity: 0.7; stroke: #000000; stroke-opacity: 0.7"/>
    </g>
   </g>
   <g id="PathCollection_7">
    <g clip-path="url(#pda6126cab1)">
     <use xlink:href="#m8f7fba8af2" x="869.172977" y="102.699887" style="fill: #440154; fill-opacity: 0.7; stroke: #000000; stroke-opacity: 0.7"/>
    </g>
   </g>
   <g id="PathCollection_8">
    <g clip-path="url(#pda6126cab1)">
     <use xlink:href="#m785d1e6057" x="971.196431" y="246.660255" style="fill: #440154; fill-opacity: 0.7; stroke: #000000; stroke-opacity: 0.7"/>
    </g>
   </g>
   <g id="PathCollection_9">
    <g clip-path="url(#pda6126cab1)">
     <use xlink:href="#m8f7fba8af2" x="1022.208158" y="225.484786" style="fill: #440154; fill-opacity: 0.7; stroke: #000000; stroke-opacity: 0.7"/>
    </g>
   </g>
   <g id="PathCollection_10">
    <defs>
     <path id="m73eaa97af6" d="M 0 8.660254 
C 2.296726 8.660254 4.499694 7.747755 6.123724 6.123724 
C 7.747755 4.499694 8.660254 2.296726 8.660254 0 
C 8.660254 -2.296726 7.747755 -4.499694 6.123724 -6.123724 
C 4.499694 -7.747755 2.296726 -8.660254 0 -8.660254 
C -2.296726 -8.660254 -4.499694 -7.747755 -6.123724 -6.123724 
C -7.747755 -4.499694 -8.660254 -2.296726 -8.660254 0 
C -8.660254 2.296726 -7.747755 4.499694 -6.123724 6.123724 
C -4.499694 7.747755 -2.296726 8.660254 0 8.660254 
z
" style="stroke: #000000; stroke-opacity: 0.7"/>
    </defs>
    <g clip-path="url(#pda6126cab1)">
     <use xlink:href="#m73eaa97af6" x="971.196431" y="273.108062" style="fill: #414487; fill-opacity: 0.7; stroke: #000000; stroke-opacity: 0.7"/>
    </g>
   </g>
   <g id="PathCollection_11">
    <defs>
     <path id="mcabc064e7d" d="M 0 -15.811388 
L -3.549878 -4.885988 
L -15.037524 -4.885988 
L -5.743823 1.866281 
L -9.293701 12.791682 
L -0 6.039413 
L 9.293701 12.791682 
L 5.743823 1.866281 
L 15.037524 -4.885988 
L 3.549878 -4.885988 
z
" style="stroke: #000000; stroke-opacity: 0.7"/>
    </defs>
    <g clip-path="url(#pda6126cab1)">
     <use xlink:href="#mcabc064e7d" x="1022.208158" y="218.119742" style="fill: #414487; fill-opacity: 0.7; stroke: #000000; stroke-opacity: 0.7"/>
    </g>
   </g>
   <g id="PathCollection_12">
    <defs>
     <path id="mfd1ae8d101" d="M 0 8.660254 
C 2.296726 8.660254 4.499694 7.747755 6.123724 6.123724 
C 7.747755 4.499694 8.660254 2.296726 8.660254 0 
C 8.660254 -2.296726 7.747755 -4.499694 6.123724 -6.123724 
C 4.499694 -7.747755 2.296726 -8.660254 0 -8.660254 
C -2.296726 -8.660254 -4.499694 -7.747755 -6.123724 -6.123724 
C -7.747755 -4.499694 -8.660254 -2.296726 -8.660254 0 
C -8.660254 2.296726 -7.747755 4.499694 -6.123724 6.123724 
C -4.499694 7.747755 -2.296726 8.660254 0 8.660254 
z
" style="stroke: #000000; stroke-opacity: 0.7"/>
    </defs>
    <g clip-path="url(#pda6126cab1)">
     <use xlink:href="#mfd1ae8d101" x="971.196431" y="318.062017" style="fill: #2a788e; fill-opacity: 0.7; stroke: #000000; stroke-opacity: 0.7"/>
    </g>
   </g>
   <g id="PathCollection_13">
    <defs>
     <path id="ma109dea90b" d="M 0 -15.811388 
L -3.549878 -4.885988 
L -15.037524 -4.885988 
L -5.743823 1.866281 
L -9.293701 12.791682 
L -0 6.039413 
L 9.293701 12.791682 
L 5.743823 1.866281 
L 15.037524 -4.885988 
L 3.549878 -4.885988 
z
" style="stroke: #000000; stroke-opacity: 0.7"/>
    </defs>
    <g clip-path="url(#pda6126cab1)">
     <use xlink:href="#ma109dea90b" x="1022.208158" y="263.880279" style="fill: #2a788e; fill-opacity: 0.7; stroke: #000000; stroke-opacity: 0.7"/>
    </g>
   </g>
   <g id="PathCollection_14">
    <defs>
     <path id="m6ab3127384" d="M 0 8.660254 
C 2.296726 8.660254 4.499694 7.747755 6.123724 6.123724 
C 7.747755 4.499694 8.660254 2.296726 8.660254 0 
C 8.660254 -2.296726 7.747755 -4.499694 6.123724 -6.123724 
C 4.499694 -7.747755 2.296726 -8.660254 0 -8.660254 
C -2.296726 -8.660254 -4.499694 -7.747755 -6.123724 -6.123724 
C -7.747755 -4.499694 -8.660254 -2.296726 -8.660254 0 
C -8.660254 2.296726 -7.747755 4.499694 -6.123724 6.123724 
C -4.499694 7.747755 -2.296726 8.660254 0 8.660254 
z
" style="stroke: #000000; stroke-opacity: 0.7"/>
    </defs>
    <g clip-path="url(#pda6126cab1)">
     <use xlink:href="#m6ab3127384" x="971.196431" y="303.565542" style="fill: #22a884; fill-opacity: 0.7; stroke: #000000; stroke-opacity: 0.7"/>
    </g>
   </g>
   <g id="PathCollection_15">
    <defs>
     <path id="m6f78eb8ac4" d="M 0 -15.811388 
L -3.549878 -4.885988 
L -15.037524 -4.885988 
L -5.743823 1.866281 
L -9.293701 12.791682 
L -0 6.039413 
L 9.293701 12.791682 
L 5.743823 1.866281 
L 15.037524 -4.885988 
L 3.549878 -4.885988 
z
" style="stroke: #000000; stroke-opacity: 0.7"/>
    </defs>
    <g clip-path="url(#pda6126cab1)">
     <use xlink:href="#m6f78eb8ac4" x="1022.208158" y="257.251074" style="fill: #22a884; fill-opacity: 0.7; stroke: #000000; stroke-opacity: 0.7"/>
    </g>
   </g>
   <g id="PathCollection_16">
    <defs>
     <path id="m0c9f16b7ae" d="M 0 8.660254 
C 2.296726 8.660254 4.499694 7.747755 6.123724 6.123724 
C 7.747755 4.499694 8.660254 2.296726 8.660254 0 
C 8.660254 -2.296726 7.747755 -4.499694 6.123724 -6.123724 
C 4.499694 -7.747755 2.296726 -8.660254 0 -8.660254 
C -2.296726 -8.660254 -4.499694 -7.747755 -6.123724 -6.123724 
C -7.747755 -4.499694 -8.660254 -2.296726 -8.660254 0 
C -8.660254 2.296726 -7.747755 4.499694 -6.123724 6.123724 
C -4.499694 7.747755 -2.296726 8.660254 0 8.660254 
z
" style="stroke: #000000; stroke-opacity: 0.7"/>
    </defs>
    <g clip-path="url(#pda6126cab1)">
     <use xlink:href="#m0c9f16b7ae" x="971.196431" y="317.21219" style="fill: #7ad151; fill-opacity: 0.7; stroke: #000000; stroke-opacity: 0.7"/>
    </g>
   </g>
   <g id="PathCollection_17">
    <defs>
     <path id="m763e717f44" d="M 0 -15.811388 
L -3.549878 -4.885988 
L -15.037524 -4.885988 
L -5.743823 1.866281 
L -9.293701 12.791682 
L -0 6.039413 
L 9.293701 12.791682 
L 5.743823 1.866281 
L 15.037524 -4.885988 
L 3.549878 -4.885988 
z
" style="stroke: #000000; stroke-opacity: 0.7"/>
    </defs>
    <g clip-path="url(#pda6126cab1)">
     <use xlink:href="#m763e717f44" x="1022.208158" y="251.707075" style="fill: #7ad151; fill-opacity: 0.7; stroke: #000000; stroke-opacity: 0.7"/>
    </g>
   </g>
   <g id="PathCollection_18">
    <defs>
     <path id="m2f8d055361" d="M 0 8.660254 
C 2.296726 8.660254 4.499694 7.747755 6.123724 6.123724 
C 7.747755 4.499694 8.660254 2.296726 8.660254 0 
C 8.660254 -2.296726 7.747755 -4.499694 6.123724 -6.123724 
C 4.499694 -7.747755 2.296726 -8.660254 0 -8.660254 
C -2.296726 -8.660254 -4.499694 -7.747755 -6.123724 -6.123724 
C -7.747755 -4.499694 -8.660254 -2.296726 -8.660254 0 
C -8.660254 2.296726 -7.747755 4.499694 -6.123724 6.123724 
C -4.499694 7.747755 -2.296726 8.660254 0 8.660254 
z
" style="stroke: #000000; stroke-opacity: 0.7"/>
    </defs>
    <g clip-path="url(#pda6126cab1)">
     <use xlink:href="#m2f8d055361" x="971.196431" y="322.715414" style="fill: #fde725; fill-opacity: 0.7; stroke: #000000; stroke-opacity: 0.7"/>
    </g>
   </g>
   <g id="PathCollection_19">
    <defs>
     <path id="m8bedf3522a" d="M 0 -15.811388 
L -3.549878 -4.885988 
L -15.037524 -4.885988 
L -5.743823 1.866281 
L -9.293701 12.791682 
L -0 6.039413 
L 9.293701 12.791682 
L 5.743823 1.866281 
L 15.037524 -4.885988 
L 3.549878 -4.885988 
z
" style="stroke: #000000; stroke-opacity: 0.7"/>
    </defs>
    <g clip-path="url(#pda6126cab1)">
     <use xlink:href="#m8bedf3522a" x="1022.208158" y="218.570383" style="fill: #fde725; fill-opacity: 0.7; stroke: #000000; stroke-opacity: 0.7"/>
    </g>
   </g>
   <g id="PathCollection_20">
    <g clip-path="url(#pda6126cab1)">
     <use xlink:href="#m785d1e6057" x="1124.231612" y="290.725284" style="fill: #440154; fill-opacity: 0.7; stroke: #000000; stroke-opacity: 0.7"/>
    </g>
   </g>
   <g id="PathCollection_21">
    <g clip-path="url(#pda6126cab1)">
     <use xlink:href="#m8f7fba8af2" x="1175.243339" y="102.699887" style="fill: #440154; fill-opacity: 0.7; stroke: #000000; stroke-opacity: 0.7"/>
    </g>
   </g>
   <g id="PathCollection_22">
    <g clip-path="url(#pda6126cab1)">
     <use xlink:href="#m785d1e6057" x="1277.266793" y="142.353557" style="fill: #440154; fill-opacity: 0.7; stroke: #000000; stroke-opacity: 0.7"/>
    </g>
   </g>
   <g id="PathCollection_23">
    <g clip-path="url(#pda6126cab1)">
     <use xlink:href="#m8f7fba8af2" x="1328.27852" y="102.699887" style="fill: #440154; fill-opacity: 0.7; stroke: #000000; stroke-opacity: 0.7"/>
    </g>
   </g>
   <g id="PathCollection_24">
    <g clip-path="url(#pda6126cab1)">
     <use xlink:href="#m785d1e6057" x="1430.301974" y="247.001541" style="fill: #440154; fill-opacity: 0.7; stroke: #000000; stroke-opacity: 0.7"/>
    </g>
   </g>
   <g id="PathCollection_25">
    <g clip-path="url(#pda6126cab1)">
     <use xlink:href="#m8f7fba8af2" x="1481.313701" y="176.786003" style="fill: #440154; fill-opacity: 0.7; stroke: #000000; stroke-opacity: 0.7"/>
    </g>
   </g>
   <g id="PathCollection_26">
    <g clip-path="url(#pda6126cab1)">
     <use xlink:href="#m73eaa97af6" x="1430.301974" y="287.185987" style="fill: #414487; fill-opacity: 0.7; stroke: #000000; stroke-opacity: 0.7"/>
    </g>
   </g>
   <g id="PathCollection_27">
    <g clip-path="url(#pda6126cab1)">
     <use xlink:href="#mcabc064e7d" x="1481.313701" y="246.438309" style="fill: #414487; fill-opacity: 0.7; stroke: #000000; stroke-opacity: 0.7"/>
    </g>
   </g>
   <g id="PathCollection_28">
    <g clip-path="url(#pda6126cab1)">
     <use xlink:href="#mfd1ae8d101" x="1430.301974" y="277.926857" style="fill: #2a788e; fill-opacity: 0.7; stroke: #000000; stroke-opacity: 0.7"/>
    </g>
   </g>
   <g id="PathCollection_29">
    <g clip-path="url(#pda6126cab1)">
     <use xlink:href="#ma109dea90b" x="1481.313701" y="249.338351" style="fill: #2a788e; fill-opacity: 0.7; stroke: #000000; stroke-opacity: 0.7"/>
    </g>
   </g>
   <g id="PathCollection_30">
    <g clip-path="url(#pda6126cab1)">
     <use xlink:href="#m6ab3127384" x="1430.301974" y="292.026812" style="fill: #22a884; fill-opacity: 0.7; stroke: #000000; stroke-opacity: 0.7"/>
    </g>
   </g>
   <g id="PathCollection_31">
    <g clip-path="url(#pda6126cab1)">
     <use xlink:href="#m6f78eb8ac4" x="1481.313701" y="102.699887" style="fill: #22a884; fill-opacity: 0.7; stroke: #000000; stroke-opacity: 0.7"/>
    </g>
   </g>
   <g id="PathCollection_32">
    <g clip-path="url(#pda6126cab1)">
     <use xlink:href="#m785d1e6057" x="1583.337155" y="213.476504" style="fill: #440154; fill-opacity: 0.7; stroke: #000000; stroke-opacity: 0.7"/>
    </g>
   </g>
   <g id="PathCollection_33">
    <g clip-path="url(#pda6126cab1)">
     <use xlink:href="#m8f7fba8af2" x="1634.348882" y="156.605545" style="fill: #440154; fill-opacity: 0.7; stroke: #000000; stroke-opacity: 0.7"/>
    </g>
   </g>
   <g id="PathCollection_34">
    <g clip-path="url(#pda6126cab1)">
     <use xlink:href="#m73eaa97af6" x="1583.337155" y="244.648367" style="fill: #414487; fill-opacity: 0.7; stroke: #000000; stroke-opacity: 0.7"/>
    </g>
   </g>
   <g id="PathCollection_35">
    <g clip-path="url(#pda6126cab1)">
     <use xlink:href="#mcabc064e7d" x="1634.348882" y="204.343473" style="fill: #414487; fill-opacity: 0.7; stroke: #000000; stroke-opacity: 0.7"/>
    </g>
   </g>
   <g id="PathCollection_36">
    <g clip-path="url(#pda6126cab1)">
     <use xlink:href="#mfd1ae8d101" x="1583.337155" y="249.222138" style="fill: #2a788e; fill-opacity: 0.7; stroke: #000000; stroke-opacity: 0.7"/>
    </g>
   </g>
   <g id="PathCollection_37">
    <g clip-path="url(#pda6126cab1)">
     <use xlink:href="#ma109dea90b" x="1634.348882" y="208.367603" style="fill: #2a788e; fill-opacity: 0.7; stroke: #000000; stroke-opacity: 0.7"/>
    </g>
   </g>
   <g id="PathCollection_38">
    <g clip-path="url(#pda6126cab1)">
     <use xlink:href="#m6ab3127384" x="1583.337155" y="251.773563" style="fill: #22a884; fill-opacity: 0.7; stroke: #000000; stroke-opacity: 0.7"/>
    </g>
   </g>
   <g id="PathCollection_39">
    <g clip-path="url(#pda6126cab1)">
     <use xlink:href="#m6f78eb8ac4" x="1634.348882" y="102.699887" style="fill: #22a884; fill-opacity: 0.7; stroke: #000000; stroke-opacity: 0.7"/>
    </g>
   </g>
   <g id="PathCollection_40">
    <g clip-path="url(#pda6126cab1)">
     <use xlink:href="#m785d1e6057" x="1736.372336" y="179.806999" style="fill: #440154; fill-opacity: 0.7; stroke: #000000; stroke-opacity: 0.7"/>
    </g>
   </g>
   <g id="PathCollection_41">
    <g clip-path="url(#pda6126cab1)">
     <use xlink:href="#m8f7fba8af2" x="1787.384063" y="102.699887" style="fill: #440154; fill-opacity: 0.7; stroke: #000000; stroke-opacity: 0.7"/>
    </g>
   </g>
   <g id="PathCollection_42">
    <g clip-path="url(#pda6126cab1)">
     <use xlink:href="#m785d1e6057" x="1889.407517" y="169.084958" style="fill: #440154; fill-opacity: 0.7; stroke: #000000; stroke-opacity: 0.7"/>
    </g>
   </g>
   <g id="PathCollection_43">
    <g clip-path="url(#pda6126cab1)">
     <use xlink:href="#m8f7fba8af2" x="1940.419244" y="102.699887" style="fill: #440154; fill-opacity: 0.7; stroke: #000000; stroke-opacity: 0.7"/>
    </g>
   </g>
   <g id="PathCollection_44">
    <g clip-path="url(#pda6126cab1)">
     <use xlink:href="#m785d1e6057" x="2042.442698" y="220.413415" style="fill: #440154; fill-opacity: 0.7; stroke: #000000; stroke-opacity: 0.7"/>
    </g>
   </g>
   <g id="PathCollection_45">
    <g clip-path="url(#pda6126cab1)">
     <use xlink:href="#m8f7fba8af2" x="2093.454425" y="164.8735" style="fill: #440154; fill-opacity: 0.7; stroke: #000000; stroke-opacity: 0.7"/>
    </g>
   </g>
   <g id="PathCollection_46">
    <g clip-path="url(#pda6126cab1)">
     <use xlink:href="#m73eaa97af6" x="2042.442698" y="275.006952" style="fill: #414487; fill-opacity: 0.7; stroke: #000000; stroke-opacity: 0.7"/>
    </g>
   </g>
   <g id="PathCollection_47">
    <g clip-path="url(#pda6126cab1)">
     <use xlink:href="#mcabc064e7d" x="2093.454425" y="169.322226" style="fill: #414487; fill-opacity: 0.7; stroke: #000000; stroke-opacity: 0.7"/>
    </g>
   </g>
   <g id="PathCollection_48">
    <g clip-path="url(#pda6126cab1)">
     <use xlink:href="#mfd1ae8d101" x="2042.442698" y="272.75855" style="fill: #2a788e; fill-opacity: 0.7; stroke: #000000; stroke-opacity: 0.7"/>
    </g>
   </g>
   <g id="PathCollection_49">
    <g clip-path="url(#pda6126cab1)">
     <use xlink:href="#ma109dea90b" x="2093.454425" y="216.734118" style="fill: #2a788e; fill-opacity: 0.7; stroke: #000000; stroke-opacity: 0.7"/>
    </g>
   </g>
   <g id="PathCollection_50">
    <g clip-path="url(#pda6126cab1)">
     <use xlink:href="#m6ab3127384" x="2042.442698" y="259.402223" style="fill: #22a884; fill-opacity: 0.7; stroke: #000000; stroke-opacity: 0.7"/>
    </g>
   </g>
   <g id="PathCollection_51">
    <g clip-path="url(#pda6126cab1)">
     <use xlink:href="#m6f78eb8ac4" x="2093.454425" y="216.386002" style="fill: #22a884; fill-opacity: 0.7; stroke: #000000; stroke-opacity: 0.7"/>
    </g>
   </g>
   <g id="PathCollection_52">
    <g clip-path="url(#pda6126cab1)">
     <use xlink:href="#m0c9f16b7ae" x="2042.442698" y="269.876356" style="fill: #7ad151; fill-opacity: 0.7; stroke: #000000; stroke-opacity: 0.7"/>
    </g>
   </g>
   <g id="PathCollection_53">
    <g clip-path="url(#pda6126cab1)">
     <use xlink:href="#m763e717f44" x="2093.454425" y="223.091117" style="fill: #7ad151; fill-opacity: 0.7; stroke: #000000; stroke-opacity: 0.7"/>
    </g>
   </g>
   <g id="PathCollection_54">
    <g clip-path="url(#pda6126cab1)">
     <use xlink:href="#m2f8d055361" x="2042.442698" y="272.639336" style="fill: #fde725; fill-opacity: 0.7; stroke: #000000; stroke-opacity: 0.7"/>
    </g>
   </g>
   <g id="PathCollection_55">
    <g clip-path="url(#pda6126cab1)">
     <use xlink:href="#m8bedf3522a" x="2093.454425" y="220.50545" style="fill: #fde725; fill-opacity: 0.7; stroke: #000000; stroke-opacity: 0.7"/>
    </g>
   </g>
   <g id="PathCollection_56">
    <g clip-path="url(#pda6126cab1)">
     <use xlink:href="#m785d1e6057" x="2195.477879" y="154.89886" style="fill: #440154; fill-opacity: 0.7; stroke: #000000; stroke-opacity: 0.7"/>
    </g>
   </g>
   <g id="PathCollection_57">
    <g clip-path="url(#pda6126cab1)">
     <use xlink:href="#m8f7fba8af2" x="2246.489606" y="125.314375" style="fill: #440154; fill-opacity: 0.7; stroke: #000000; stroke-opacity: 0.7"/>
    </g>
   </g>
   <g id="PathCollection_58">
    <g clip-path="url(#pda6126cab1)">
     <use xlink:href="#m73eaa97af6" x="2195.477879" y="176.077951" style="fill: #414487; fill-opacity: 0.7; stroke: #000000; stroke-opacity: 0.7"/>
    </g>
   </g>
   <g id="PathCollection_59">
    <g clip-path="url(#pda6126cab1)">
     <use xlink:href="#mcabc064e7d" x="2246.489606" y="144.78509" style="fill: #414487; fill-opacity: 0.7; stroke: #000000; stroke-opacity: 0.7"/>
    </g>
   </g>
   <g id="PathCollection_60">
    <g clip-path="url(#pda6126cab1)">
     <use xlink:href="#mfd1ae8d101" x="2195.477879" y="179.004085" style="fill: #2a788e; fill-opacity: 0.7; stroke: #000000; stroke-opacity: 0.7"/>
    </g>
   </g>
   <g id="PathCollection_61">
    <g clip-path="url(#pda6126cab1)">
     <use xlink:href="#ma109dea90b" x="2246.489606" y="149.556976" style="fill: #2a788e; fill-opacity: 0.7; stroke: #000000; stroke-opacity: 0.7"/>
    </g>
   </g>
   <g id="PathCollection_62">
    <g clip-path="url(#pda6126cab1)">
     <use xlink:href="#m6ab3127384" x="2195.477879" y="162.265085" style="fill: #22a884; fill-opacity: 0.7; stroke: #000000; stroke-opacity: 0.7"/>
    </g>
   </g>
   <g id="PathCollection_63">
    <g clip-path="url(#pda6126cab1)">
     <use xlink:href="#m6f78eb8ac4" x="2246.489606" y="102.699887" style="fill: #22a884; fill-opacity: 0.7; stroke: #000000; stroke-opacity: 0.7"/>
    </g>
   </g>
   <g id="PathCollection_64">
    <g clip-path="url(#pda6126cab1)">
     <use xlink:href="#m785d1e6057" x="2348.51306" y="174.931043" style="fill: #440154; fill-opacity: 0.7; stroke: #000000; stroke-opacity: 0.7"/>
    </g>
   </g>
   <g id="PathCollection_65">
    <g clip-path="url(#pda6126cab1)">
     <use xlink:href="#m8f7fba8af2" x="2399.524787" y="156.483927" style="fill: #440154; fill-opacity: 0.7; stroke: #000000; stroke-opacity: 0.7"/>
    </g>
   </g>
   <g id="PathCollection_66">
    <g clip-path="url(#pda6126cab1)">
     <use xlink:href="#m73eaa97af6" x="2348.51306" y="177.31352" style="fill: #414487; fill-opacity: 0.7; stroke: #000000; stroke-opacity: 0.7"/>
    </g>
   </g>
   <g id="PathCollection_67">
    <g clip-path="url(#pda6126cab1)">
     <use xlink:href="#mcabc064e7d" x="2399.524787" y="166.438855" style="fill: #414487; fill-opacity: 0.7; stroke: #000000; stroke-opacity: 0.7"/>
    </g>
   </g>
   <g id="PathCollection_68">
    <g clip-path="url(#pda6126cab1)">
     <use xlink:href="#mfd1ae8d101" x="2348.51306" y="191.781507" style="fill: #2a788e; fill-opacity: 0.7; stroke: #000000; stroke-opacity: 0.7"/>
    </g>
   </g>
   <g id="PathCollection_69">
    <g clip-path="url(#pda6126cab1)">
     <use xlink:href="#ma109dea90b" x="2399.524787" y="175.060023" style="fill: #2a788e; fill-opacity: 0.7; stroke: #000000; stroke-opacity: 0.7"/>
    </g>
   </g>
   <g id="PathCollection_70">
    <g clip-path="url(#pda6126cab1)">
     <use xlink:href="#m6ab3127384" x="2348.51306" y="181.196669" style="fill: #22a884; fill-opacity: 0.7; stroke: #000000; stroke-opacity: 0.7"/>
    </g>
   </g>
   <g id="PathCollection_71">
    <g clip-path="url(#pda6126cab1)">
     <use xlink:href="#m6f78eb8ac4" x="2399.524787" y="159.415328" style="fill: #22a884; fill-opacity: 0.7; stroke: #000000; stroke-opacity: 0.7"/>
    </g>
   </g>
   <g id="PathCollection_72">
    <g clip-path="url(#pda6126cab1)">
     <use xlink:href="#m0c9f16b7ae" x="2348.51306" y="175.467384" style="fill: #7ad151; fill-opacity: 0.7; stroke: #000000; stroke-opacity: 0.7"/>
    </g>
   </g>
   <g id="PathCollection_73">
    <g clip-path="url(#pda6126cab1)">
     <use xlink:href="#m763e717f44" x="2399.524787" y="175.452819" style="fill: #7ad151; fill-opacity: 0.7; stroke: #000000; stroke-opacity: 0.7"/>
    </g>
   </g>
   <g id="PathCollection_74">
    <g clip-path="url(#pda6126cab1)">
     <use xlink:href="#m2f8d055361" x="2348.51306" y="190.030326" style="fill: #fde725; fill-opacity: 0.7; stroke: #000000; stroke-opacity: 0.7"/>
    </g>
   </g>
   <g id="PathCollection_75">
    <g clip-path="url(#pda6126cab1)">
     <use xlink:href="#m8bedf3522a" x="2399.524787" y="169.351891" style="fill: #fde725; fill-opacity: 0.7; stroke: #000000; stroke-opacity: 0.7"/>
    </g>
   </g>
   <g id="line2d_1">
    <path d="M 308.04398 596.029696 
L 308.04398 53.366906 
" clip-path="url(#pda6126cab1)" style="fill: none; stroke: #000000; stroke-width: 2; stroke-linecap: round"/>
   </g>
   <g id="line2d_2">
    <path d="M 461.079161 596.029696 
L 461.079161 53.366906 
" clip-path="url(#pda6126cab1)" style="fill: none; stroke: #000000; stroke-width: 2; stroke-linecap: round"/>
   </g>
   <g id="line2d_3">
    <path d="M 614.114342 596.029696 
L 614.114342 53.366906 
" clip-path="url(#pda6126cab1)" style="fill: none; stroke: #000000; stroke-width: 2; stroke-linecap: round"/>
   </g>
   <g id="line2d_4">
    <path d="M 767.149523 596.029696 
L 767.149523 53.366906 
" clip-path="url(#pda6126cab1)" style="fill: none; stroke: #000000; stroke-width: 2; stroke-linecap: round"/>
   </g>
   <g id="line2d_5">
    <path d="M 665.126069 236.426706 
L 716.137796 102.699887 
" clip-path="url(#pda6126cab1)" style="fill: none; stroke-dasharray: 7.4,3.2; stroke-dashoffset: 0; stroke: #000000; stroke-width: 2"/>
   </g>
   <g id="line2d_6">
    <path d="M 920.184704 596.029696 
L 920.184704 53.366906 
" clip-path="url(#pda6126cab1)" style="fill: none; stroke: #000000; stroke-width: 2; stroke-linecap: round"/>
   </g>
   <g id="line2d_7">
    <path d="M 818.16125 156.90141 
L 869.172977 102.699887 
" clip-path="url(#pda6126cab1)" style="fill: none; stroke-dasharray: 7.4,3.2; stroke-dashoffset: 0; stroke: #000000; stroke-width: 2"/>
   </g>
   <g id="line2d_8">
    <path d="M 1073.219885 596.029696 
L 1073.219885 53.366906 
" clip-path="url(#pda6126cab1)" style="fill: none; stroke: #000000; stroke-width: 2; stroke-linecap: round"/>
   </g>
   <g id="line2d_9">
    <path d="M 971.196431 246.660255 
L 1022.208158 225.484786 
" clip-path="url(#pda6126cab1)" style="fill: none; stroke-dasharray: 7.4,3.2; stroke-dashoffset: 0; stroke: #000000; stroke-width: 2"/>
   </g>
   <g id="line2d_10">
    <path d="M 971.196431 273.108062 
L 1022.208158 218.119742 
" clip-path="url(#pda6126cab1)" style="fill: none; stroke-dasharray: 7.4,3.2; stroke-dashoffset: 0; stroke: #000000; stroke-width: 2"/>
   </g>
   <g id="line2d_11">
    <path d="M 971.196431 318.062017 
L 1022.208158 263.880279 
" clip-path="url(#pda6126cab1)" style="fill: none; stroke-dasharray: 7.4,3.2; stroke-dashoffset: 0; stroke: #000000; stroke-width: 2"/>
   </g>
   <g id="line2d_12">
    <path d="M 971.196431 303.565542 
L 1022.208158 257.251074 
" clip-path="url(#pda6126cab1)" style="fill: none; stroke-dasharray: 7.4,3.2; stroke-dashoffset: 0; stroke: #000000; stroke-width: 2"/>
   </g>
   <g id="line2d_13">
    <path d="M 971.196431 317.21219 
L 1022.208158 251.707075 
" clip-path="url(#pda6126cab1)" style="fill: none; stroke-dasharray: 7.4,3.2; stroke-dashoffset: 0; stroke: #000000; stroke-width: 2"/>
   </g>
   <g id="line2d_14">
    <path d="M 971.196431 322.715414 
L 1022.208158 218.570383 
" clip-path="url(#pda6126cab1)" style="fill: none; stroke-dasharray: 7.4,3.2; stroke-dashoffset: 0; stroke: #000000; stroke-width: 2"/>
   </g>
   <g id="line2d_15">
    <path d="M 1226.255066 596.029696 
L 1226.255066 53.366906 
" clip-path="url(#pda6126cab1)" style="fill: none; stroke: #000000; stroke-width: 2; stroke-linecap: round"/>
   </g>
   <g id="line2d_16">
    <path d="M 1124.231612 290.725284 
L 1175.243339 102.699887 
" clip-path="url(#pda6126cab1)" style="fill: none; stroke-dasharray: 7.4,3.2; stroke-dashoffset: 0; stroke: #000000; stroke-width: 2"/>
   </g>
   <g id="line2d_17">
    <path d="M 1379.290247 596.029696 
L 1379.290247 53.366906 
" clip-path="url(#pda6126cab1)" style="fill: none; stroke: #000000; stroke-width: 2; stroke-linecap: round"/>
   </g>
   <g id="line2d_18">
    <path d="M 1277.266793 142.353557 
L 1328.27852 102.699887 
" clip-path="url(#pda6126cab1)" style="fill: none; stroke-dasharray: 7.4,3.2; stroke-dashoffset: 0; stroke: #000000; stroke-width: 2"/>
   </g>
   <g id="line2d_19">
    <path d="M 1532.325428 596.029696 
L 1532.325428 53.366906 
" clip-path="url(#pda6126cab1)" style="fill: none; stroke: #000000; stroke-width: 2; stroke-linecap: round"/>
   </g>
   <g id="line2d_20">
    <path d="M 1430.301974 247.001541 
L 1481.313701 176.786003 
" clip-path="url(#pda6126cab1)" style="fill: none; stroke-dasharray: 7.4,3.2; stroke-dashoffset: 0; stroke: #000000; stroke-width: 2"/>
   </g>
   <g id="line2d_21">
    <path d="M 1430.301974 287.185987 
L 1481.313701 246.438309 
" clip-path="url(#pda6126cab1)" style="fill: none; stroke-dasharray: 7.4,3.2; stroke-dashoffset: 0; stroke: #000000; stroke-width: 2"/>
   </g>
   <g id="line2d_22">
    <path d="M 1430.301974 277.926857 
L 1481.313701 249.338351 
" clip-path="url(#pda6126cab1)" style="fill: none; stroke-dasharray: 7.4,3.2; stroke-dashoffset: 0; stroke: #000000; stroke-width: 2"/>
   </g>
   <g id="line2d_23">
    <path d="M 1430.301974 292.026812 
L 1481.313701 102.699887 
" clip-path="url(#pda6126cab1)" style="fill: none; stroke-dasharray: 7.4,3.2; stroke-dashoffset: 0; stroke: #000000; stroke-width: 2"/>
   </g>
   <g id="line2d_24">
    <path d="M 1685.360609 596.029696 
L 1685.360609 53.366906 
" clip-path="url(#pda6126cab1)" style="fill: none; stroke: #000000; stroke-width: 2; stroke-linecap: round"/>
   </g>
   <g id="line2d_25">
    <path d="M 1583.337155 213.476504 
L 1634.348882 156.605545 
" clip-path="url(#pda6126cab1)" style="fill: none; stroke-dasharray: 7.4,3.2; stroke-dashoffset: 0; stroke: #000000; stroke-width: 2"/>
   </g>
   <g id="line2d_26">
    <path d="M 1583.337155 244.648367 
L 1634.348882 204.343473 
" clip-path="url(#pda6126cab1)" style="fill: none; stroke-dasharray: 7.4,3.2; stroke-dashoffset: 0; stroke: #000000; stroke-width: 2"/>
   </g>
   <g id="line2d_27">
    <path d="M 1583.337155 249.222138 
L 1634.348882 208.367603 
" clip-path="url(#pda6126cab1)" style="fill: none; stroke-dasharray: 7.4,3.2; stroke-dashoffset: 0; stroke: #000000; stroke-width: 2"/>
   </g>
   <g id="line2d_28">
    <path d="M 1583.337155 251.773563 
L 1634.348882 102.699887 
" clip-path="url(#pda6126cab1)" style="fill: none; stroke-dasharray: 7.4,3.2; stroke-dashoffset: 0; stroke: #000000; stroke-width: 2"/>
   </g>
   <g id="line2d_29">
    <path d="M 1838.39579 596.029696 
L 1838.39579 53.366906 
" clip-path="url(#pda6126cab1)" style="fill: none; stroke: #000000; stroke-width: 2; stroke-linecap: round"/>
   </g>
   <g id="line2d_30">
    <path d="M 1736.372336 179.806999 
L 1787.384063 102.699887 
" clip-path="url(#pda6126cab1)" style="fill: none; stroke-dasharray: 7.4,3.2; stroke-dashoffset: 0; stroke: #000000; stroke-width: 2"/>
   </g>
   <g id="line2d_31">
    <path d="M 1991.430971 596.029696 
L 1991.430971 53.366906 
" clip-path="url(#pda6126cab1)" style="fill: none; stroke: #000000; stroke-width: 2; stroke-linecap: round"/>
   </g>
   <g id="line2d_32">
    <path d="M 1889.407517 169.084958 
L 1940.419244 102.699887 
" clip-path="url(#pda6126cab1)" style="fill: none; stroke-dasharray: 7.4,3.2; stroke-dashoffset: 0; stroke: #000000; stroke-width: 2"/>
   </g>
   <g id="line2d_33">
    <path d="M 2144.466152 596.029696 
L 2144.466152 53.366906 
" clip-path="url(#pda6126cab1)" style="fill: none; stroke: #000000; stroke-width: 2; stroke-linecap: round"/>
   </g>
   <g id="line2d_34">
    <path d="M 2042.442698 220.413415 
L 2093.454425 164.8735 
" clip-path="url(#pda6126cab1)" style="fill: none; stroke-dasharray: 7.4,3.2; stroke-dashoffset: 0; stroke: #000000; stroke-width: 2"/>
   </g>
   <g id="line2d_35">
    <path d="M 2042.442698 275.006952 
L 2093.454425 169.322226 
" clip-path="url(#pda6126cab1)" style="fill: none; stroke-dasharray: 7.4,3.2; stroke-dashoffset: 0; stroke: #000000; stroke-width: 2"/>
   </g>
   <g id="line2d_36">
    <path d="M 2042.442698 272.75855 
L 2093.454425 216.734118 
" clip-path="url(#pda6126cab1)" style="fill: none; stroke-dasharray: 7.4,3.2; stroke-dashoffset: 0; stroke: #000000; stroke-width: 2"/>
   </g>
   <g id="line2d_37">
    <path d="M 2042.442698 259.402223 
L 2093.454425 216.386002 
" clip-path="url(#pda6126cab1)" style="fill: none; stroke-dasharray: 7.4,3.2; stroke-dashoffset: 0; stroke: #000000; stroke-width: 2"/>
   </g>
   <g id="line2d_38">
    <path d="M 2042.442698 269.876356 
L 2093.454425 223.091117 
" clip-path="url(#pda6126cab1)" style="fill: none; stroke-dasharray: 7.4,3.2; stroke-dashoffset: 0; stroke: #000000; stroke-width: 2"/>
   </g>
   <g id="line2d_39">
    <path d="M 2042.442698 272.639336 
L 2093.454425 220.50545 
" clip-path="url(#pda6126cab1)" style="fill: none; stroke-dasharray: 7.4,3.2; stroke-dashoffset: 0; stroke: #000000; stroke-width: 2"/>
   </g>
   <g id="line2d_40">
    <path d="M 2297.501333 596.029696 
L 2297.501333 53.366906 
" clip-path="url(#pda6126cab1)" style="fill: none; stroke: #000000; stroke-width: 2; stroke-linecap: round"/>
   </g>
   <g id="line2d_41">
    <path d="M 2195.477879 154.89886 
L 2246.489606 125.314375 
" clip-path="url(#pda6126cab1)" style="fill: none; stroke-dasharray: 7.4,3.2; stroke-dashoffset: 0; stroke: #000000; stroke-width: 2"/>
   </g>
   <g id="line2d_42">
    <path d="M 2195.477879 176.077951 
L 2246.489606 144.78509 
" clip-path="url(#pda6126cab1)" style="fill: none; stroke-dasharray: 7.4,3.2; stroke-dashoffset: 0; stroke: #000000; stroke-width: 2"/>
   </g>
   <g id="line2d_43">
    <path d="M 2195.477879 179.004085 
L 2246.489606 149.556976 
" clip-path="url(#pda6126cab1)" style="fill: none; stroke-dasharray: 7.4,3.2; stroke-dashoffset: 0; stroke: #000000; stroke-width: 2"/>
   </g>
   <g id="line2d_44">
    <path d="M 2195.477879 162.265085 
L 2246.489606 102.699887 
" clip-path="url(#pda6126cab1)" style="fill: none; stroke-dasharray: 7.4,3.2; stroke-dashoffset: 0; stroke: #000000; stroke-width: 2"/>
   </g>
   <g id="line2d_45">
    <path d="M 2348.51306 174.931043 
L 2399.524787 156.483927 
" clip-path="url(#pda6126cab1)" style="fill: none; stroke-dasharray: 7.4,3.2; stroke-dashoffset: 0; stroke: #000000; stroke-width: 2"/>
   </g>
   <g id="line2d_46">
    <path d="M 2348.51306 177.31352 
L 2399.524787 166.438855 
" clip-path="url(#pda6126cab1)" style="fill: none; stroke-dasharray: 7.4,3.2; stroke-dashoffset: 0; stroke: #000000; stroke-width: 2"/>
   </g>
   <g id="line2d_47">
    <path d="M 2348.51306 191.781507 
L 2399.524787 175.060023 
" clip-path="url(#pda6126cab1)" style="fill: none; stroke-dasharray: 7.4,3.2; stroke-dashoffset: 0; stroke: #000000; stroke-width: 2"/>
   </g>
   <g id="line2d_48">
    <path d="M 2348.51306 181.196669 
L 2399.524787 159.415328 
" clip-path="url(#pda6126cab1)" style="fill: none; stroke-dasharray: 7.4,3.2; stroke-dashoffset: 0; stroke: #000000; stroke-width: 2"/>
   </g>
   <g id="line2d_49">
    <path d="M 2348.51306 175.467384 
L 2399.524787 175.452819 
" clip-path="url(#pda6126cab1)" style="fill: none; stroke-dasharray: 7.4,3.2; stroke-dashoffset: 0; stroke: #000000; stroke-width: 2"/>
   </g>
   <g id="line2d_50">
    <path d="M 2348.51306 190.030326 
L 2399.524787 169.351891 
" clip-path="url(#pda6126cab1)" style="fill: none; stroke-dasharray: 7.4,3.2; stroke-dashoffset: 0; stroke: #000000; stroke-width: 2"/>
   </g>
   <g id="patch_3">
    <path d="M 96.345312 596.029696 
L 96.345312 53.366906 
" style="fill: none; stroke: #cccccc; stroke-width: 0.8; stroke-linejoin: miter; stroke-linecap: square"/>
   </g>
   <g id="patch_4">
    <path d="M 2509.2 596.029696 
L 2509.2 53.366906 
" style="fill: none; stroke: #cccccc; stroke-width: 0.8; stroke-linejoin: miter; stroke-linecap: square"/>
   </g>
   <g id="patch_5">
    <path d="M 96.345312 596.029696 
L 2509.2 596.029696 
" style="fill: none; stroke: #cccccc; stroke-width: 0.8; stroke-linejoin: miter; stroke-linecap: square"/>
   </g>
   <g id="patch_6">
    <path d="M 96.345312 53.366906 
L 2509.2 53.366906 
" style="fill: none; stroke: #cccccc; stroke-width: 0.8; stroke-linejoin: miter; stroke-linecap: square"/>
   </g>
   <g id="text_23">
    <!-- Biosynthesis of molecules by PKSs and post-PKS tailorings -->
    <g style="fill: #262626" transform="translate(841.732422 36.51365) scale(0.35 -0.35)">
     <defs>
      <path id="ArialMT-66" d="M 556 0 
L 556 2881 
L 59 2881 
L 59 3319 
L 556 3319 
L 556 3672 
Q 556 4006 616 4169 
Q 697 4388 901 4523 
Q 1106 4659 1475 4659 
Q 1713 4659 2000 4603 
L 1916 4113 
Q 1741 4144 1584 4144 
Q 1328 4144 1222 4034 
Q 1116 3925 1116 3625 
L 1116 3319 
L 1763 3319 
L 1763 2881 
L 1116 2881 
L 1116 0 
L 556 0 
z
" transform="scale(0.015625)"/>
      <path id="ArialMT-50" d="M 494 0 
L 494 4581 
L 2222 4581 
Q 2678 4581 2919 4538 
Q 3256 4481 3484 4323 
Q 3713 4166 3852 3881 
Q 3991 3597 3991 3256 
Q 3991 2672 3619 2267 
Q 3247 1863 2275 1863 
L 1100 1863 
L 1100 0 
L 494 0 
z
M 1100 2403 
L 2284 2403 
Q 2872 2403 3119 2622 
Q 3366 2841 3366 3238 
Q 3366 3525 3220 3729 
Q 3075 3934 2838 4000 
Q 2684 4041 2272 4041 
L 1100 4041 
L 1100 2403 
z
" transform="scale(0.015625)"/>
      <path id="ArialMT-4b" d="M 469 0 
L 469 4581 
L 1075 4581 
L 1075 2309 
L 3350 4581 
L 4172 4581 
L 2250 2725 
L 4256 0 
L 3456 0 
L 1825 2319 
L 1075 1588 
L 1075 0 
L 469 0 
z
" transform="scale(0.015625)"/>
     </defs>
     <use xlink:href="#ArialMT-42"/>
     <use xlink:href="#ArialMT-69" transform="translate(66.699219 0)"/>
     <use xlink:href="#ArialMT-6f" transform="translate(88.916016 0)"/>
     <use xlink:href="#ArialMT-73" transform="translate(144.53125 0)"/>
     <use xlink:href="#ArialMT-79" transform="translate(194.53125 0)"/>
     <use xlink:href="#ArialMT-6e" transform="translate(244.53125 0)"/>
     <use xlink:href="#ArialMT-74" transform="translate(300.146484 0)"/>
     <use xlink:href="#ArialMT-68" transform="translate(327.929688 0)"/>
     <use xlink:href="#ArialMT-65" transform="translate(383.544922 0)"/>
     <use xlink:href="#ArialMT-73" transform="translate(439.160156 0)"/>
     <use xlink:href="#ArialMT-69" transform="translate(489.160156 0)"/>
     <use xlink:href="#ArialMT-73" transform="translate(511.376953 0)"/>
     <use xlink:href="#ArialMT-20" transform="translate(561.376953 0)"/>
     <use xlink:href="#ArialMT-6f" transform="translate(589.160156 0)"/>
     <use xlink:href="#ArialMT-66" transform="translate(644.775391 0)"/>
     <use xlink:href="#ArialMT-20" transform="translate(672.558594 0)"/>
     <use xlink:href="#ArialMT-6d" transform="translate(700.341797 0)"/>
     <use xlink:href="#ArialMT-6f" transform="translate(783.642578 0)"/>
     <use xlink:href="#ArialMT-6c" transform="translate(839.257812 0)"/>
     <use xlink:href="#ArialMT-65" transform="translate(861.474609 0)"/>
     <use xlink:href="#ArialMT-63" transform="translate(917.089844 0)"/>
     <use xlink:href="#ArialMT-75" transform="translate(967.089844 0)"/>
     <use xlink:href="#ArialMT-6c" transform="translate(1022.705078 0)"/>
     <use xlink:href="#ArialMT-65" transform="translate(1044.921875 0)"/>
     <use xlink:href="#ArialMT-73" transform="translate(1100.537109 0)"/>
     <use xlink:href="#ArialMT-20" transform="translate(1150.537109 0)"/>
     <use xlink:href="#ArialMT-62" transform="translate(1178.320312 0)"/>
     <use xlink:href="#ArialMT-79" transform="translate(1233.935547 0)"/>
     <use xlink:href="#ArialMT-20" transform="translate(1283.935547 0)"/>
     <use xlink:href="#ArialMT-50" transform="translate(1311.71875 0)"/>
     <use xlink:href="#ArialMT-4b" transform="translate(1378.417969 0)"/>
     <use xlink:href="#ArialMT-53" transform="translate(1445.117188 0)"/>
     <use xlink:href="#ArialMT-73" transform="translate(1511.816406 0)"/>
     <use xlink:href="#ArialMT-20" transform="translate(1561.816406 0)"/>
     <use xlink:href="#ArialMT-61" transform="translate(1589.599609 0)"/>
     <use xlink:href="#ArialMT-6e" transform="translate(1645.214844 0)"/>
     <use xlink:href="#ArialMT-64" transform="translate(1700.830078 0)"/>
     <use xlink:href="#ArialMT-20" transform="translate(1756.445312 0)"/>
     <use xlink:href="#ArialMT-70" transform="translate(1784.228516 0)"/>
     <use xlink:href="#ArialMT-6f" transform="translate(1839.84375 0)"/>
     <use xlink:href="#ArialMT-73" transform="translate(1895.458984 0)"/>
     <use xlink:href="#ArialMT-74" transform="translate(1945.458984 0)"/>
     <use xlink:href="#ArialMT-2d" transform="translate(1973.242188 0)"/>
     <use xlink:href="#ArialMT-50" transform="translate(2006.542969 0)"/>
     <use xlink:href="#ArialMT-4b" transform="translate(2073.242188 0)"/>
     <use xlink:href="#ArialMT-53" transform="translate(2139.941406 0)"/>
     <use xlink:href="#ArialMT-20" transform="translate(2206.640625 0)"/>
     <use xlink:href="#ArialMT-74" transform="translate(2234.423828 0)"/>
     <use xlink:href="#ArialMT-61" transform="translate(2262.207031 0)"/>
     <use xlink:href="#ArialMT-69" transform="translate(2317.822266 0)"/>
     <use xlink:href="#ArialMT-6c" transform="translate(2340.039062 0)"/>
     <use xlink:href="#ArialMT-6f" transform="translate(2362.255859 0)"/>
     <use xlink:href="#ArialMT-72" transform="translate(2417.871094 0)"/>
     <use xlink:href="#ArialMT-69" transform="translate(2451.171875 0)"/>
     <use xlink:href="#ArialMT-6e" transform="translate(2473.388672 0)"/>
     <use xlink:href="#ArialMT-67" transform="translate(2529.003906 0)"/>
     <use xlink:href="#ArialMT-73" transform="translate(2584.619141 0)"/>
    </g>
   </g>
   <g id="legend_1">
    <g id="patch_7">
     <path d="M 110.345312 586.029696 
L 368.876562 586.029696 
Q 372.876562 586.029696 372.876562 582.029696 
L 372.876562 526.960946 
Q 372.876562 522.960946 368.876562 522.960946 
L 110.345312 522.960946 
Q 106.345312 522.960946 106.345312 526.960946 
L 106.345312 582.029696 
Q 106.345312 586.029696 110.345312 586.029696 
z
" style="fill: #ffffff; opacity: 0.8; stroke: #000000; stroke-linejoin: miter"/>
    </g>
    <g id="line2d_51">
     <path d="M 114.345312 538.520321 
L 134.345312 538.520321 
L 154.345312 538.520321 
" style="fill: none; stroke: #ffffff; stroke-width: 2; stroke-linecap: round"/>
     <defs>
      <path id="m22ce8ad91e" d="M 0 8.5 
C 2.254226 8.5 4.416429 7.604386 6.010408 6.010408 
C 7.604386 4.416429 8.5 2.254226 8.5 0 
C 8.5 -2.254226 7.604386 -4.416429 6.010408 -6.010408 
C 4.416429 -7.604386 2.254226 -8.5 0 -8.5 
C -2.254226 -8.5 -4.416429 -7.604386 -6.010408 -6.010408 
C -7.604386 -4.416429 -8.5 -2.254226 -8.5 0 
C -8.5 2.254226 -7.604386 4.416429 -6.010408 6.010408 
C -4.416429 7.604386 -2.254226 8.5 0 8.5 
z
" style="stroke: #ffffff"/>
     </defs>
     <g>
      <use xlink:href="#m22ce8ad91e" x="134.345312" y="538.520321" style="stroke: #ffffff"/>
     </g>
    </g>
    <g id="text_24">
     <!-- PKS product -->
     <g style="fill: #262626" transform="translate(170.345312 545.520321) scale(0.2 -0.2)">
      <use xlink:href="#ArialMT-50"/>
      <use xlink:href="#ArialMT-4b" transform="translate(66.699219 0)"/>
      <use xlink:href="#ArialMT-53" transform="translate(133.398438 0)"/>
      <use xlink:href="#ArialMT-20" transform="translate(200.097656 0)"/>
      <use xlink:href="#ArialMT-70" transform="translate(227.880859 0)"/>
      <use xlink:href="#ArialMT-72" transform="translate(283.496094 0)"/>
      <use xlink:href="#ArialMT-6f" transform="translate(316.796875 0)"/>
      <use xlink:href="#ArialMT-64" transform="translate(372.412109 0)"/>
      <use xlink:href="#ArialMT-75" transform="translate(428.027344 0)"/>
      <use xlink:href="#ArialMT-63" transform="translate(483.642578 0)"/>
      <use xlink:href="#ArialMT-74" transform="translate(533.642578 0)"/>
     </g>
    </g>
    <g id="line2d_52">
     <path d="M 114.345312 567.054696 
L 134.345312 567.054696 
L 154.345312 567.054696 
" style="fill: none; stroke: #ffffff; stroke-width: 2; stroke-linecap: round"/>
     <defs>
      <path id="m2a22d947f9" d="M 0 -12.5 
L -2.806425 -3.862712 
L -11.888206 -3.862712 
L -4.540891 1.475425 
L -7.347316 10.112712 
L -0 4.774575 
L 7.347316 10.112712 
L 4.540891 1.475425 
L 11.888206 -3.862712 
L 2.806425 -3.862712 
z
" style="stroke: #ffffff; stroke-linejoin: bevel"/>
     </defs>
     <g>
      <use xlink:href="#m2a22d947f9" x="134.345312" y="567.054696" style="stroke: #ffffff; stroke-linejoin: bevel"/>
     </g>
    </g>
    <g id="text_25">
     <!-- PKS-modified product -->
     <g style="fill: #262626" transform="translate(170.345312 574.054696) scale(0.2 -0.2)">
      <use xlink:href="#ArialMT-50"/>
      <use xlink:href="#ArialMT-4b" transform="translate(66.699219 0)"/>
      <use xlink:href="#ArialMT-53" transform="translate(133.398438 0)"/>
      <use xlink:href="#ArialMT-2d" transform="translate(200.097656 0)"/>
      <use xlink:href="#ArialMT-6d" transform="translate(233.398438 0)"/>
      <use xlink:href="#ArialMT-6f" transform="translate(316.699219 0)"/>
      <use xlink:href="#ArialMT-64" transform="translate(372.314453 0)"/>
      <use xlink:href="#ArialMT-69" transform="translate(427.929688 0)"/>
      <use xlink:href="#ArialMT-66" transform="translate(450.146484 0)"/>
      <use xlink:href="#ArialMT-69" transform="translate(477.929688 0)"/>
      <use xlink:href="#ArialMT-65" transform="translate(500.146484 0)"/>
      <use xlink:href="#ArialMT-64" transform="translate(555.761719 0)"/>
      <use xlink:href="#ArialMT-20" transform="translate(611.376953 0)"/>
      <use xlink:href="#ArialMT-70" transform="translate(639.160156 0)"/>
      <use xlink:href="#ArialMT-72" transform="translate(694.775391 0)"/>
      <use xlink:href="#ArialMT-6f" transform="translate(728.076172 0)"/>
      <use xlink:href="#ArialMT-64" transform="translate(783.691406 0)"/>
      <use xlink:href="#ArialMT-75" transform="translate(839.306641 0)"/>
      <use xlink:href="#ArialMT-63" transform="translate(894.921875 0)"/>
      <use xlink:href="#ArialMT-74" transform="translate(944.921875 0)"/>
     </g>
    </g>
   </g>
  </g>
 </g>
 <defs>
  <clipPath id="pda6126cab1">
   <rect x="96.345312" y="53.366906" width="2412.854687" height="542.66279"/>
  </clipPath>
 </defs>
</svg>
