<?xml version="1.0" encoding="utf-8" standalone="no"?>
<!DOCTYPE svg PUBLIC "-//W3C//DTD SVG 1.1//EN"
  "http://www.w3.org/Graphics/SVG/1.1/DTD/svg11.dtd">
<svg xmlns:xlink="http://www.w3.org/1999/xlink" width="460.8pt" height="345.6pt" viewBox="0 0 460.8 345.6" xmlns="http://www.w3.org/2000/svg" version="1.1">
 <metadata>
  <rdf:RDF xmlns:dc="http://purl.org/dc/elements/1.1/" xmlns:cc="http://creativecommons.org/ns#" xmlns:rdf="http://www.w3.org/1999/02/22-rdf-syntax-ns#">
   <cc:Work>
    <dc:type rdf:resource="http://purl.org/dc/dcmitype/StillImage"/>
    <dc:date>2025-05-08T00:37:11.116895</dc:date>
    <dc:format>image/svg+xml</dc:format>
    <dc:creator>
     <cc:Agent>
      <dc:title>Matplotlib v3.10.0, https://matplotlib.org/</dc:title>
     </cc:Agent>
    </dc:creator>
   </cc:Work>
  </rdf:RDF>
 </metadata>
 <defs>
  <style type="text/css">*{stroke-linejoin: round; stroke-linecap: butt}</style>
 </defs>
 <g id="figure_1">
  <g id="patch_1">
   <path d="M 0 345.6 
L 460.8 345.6 
L 460.8 0 
L 0 0 
z
" style="fill: #ffffff"/>
  </g>
  <g id="axes_1">
   <g id="patch_2">
    <path d="M 60.896563 268.625604 
L 442.76906 268.625604 
L 442.76906 43.98 
L 60.896563 43.98 
z
" style="fill: #ffffff"/>
   </g>
   <g id="matplotlib.axis_1">
    <g id="xtick_1">
     <g id="text_1">
      <!-- PKS products -->
      <g style="fill: #262626" transform="translate(85.591627 314.478396) rotate(-20) scale(0.14 -0.14)">
       <defs>
        <path id="ArialMT-50" d="M 494 0 
L 494 4581 
L 2222 4581 
Q 2678 4581 2919 4538 
Q 3256 4481 3484 4323 
Q 3713 4166 3852 3881 
Q 3991 3597 3991 3256 
Q 3991 2672 3619 2267 
Q 3247 1863 2275 1863 
L 1100 1863 
L 1100 0 
L 494 0 
z
M 1100 2403 
L 2284 2403 
Q 2872 2403 3119 2622 
Q 3366 2841 3366 3238 
Q 3366 3525 3220 3729 
Q 3075 3934 2838 4000 
Q 2684 4041 2272 4041 
L 1100 4041 
L 1100 2403 
z
" transform="scale(0.015625)"/>
        <path id="ArialMT-4b" d="M 469 0 
L 469 4581 
L 1075 4581 
L 1075 2309 
L 3350 4581 
L 4172 4581 
L 2250 2725 
L 4256 0 
L 3456 0 
L 1825 2319 
L 1075 1588 
L 1075 0 
L 469 0 
z
" transform="scale(0.015625)"/>
        <path id="ArialMT-53" d="M 288 1472 
L 859 1522 
Q 900 1178 1048 958 
Q 1197 738 1509 602 
Q 1822 466 2213 466 
Q 2559 466 2825 569 
Q 3091 672 3220 851 
Q 3350 1031 3350 1244 
Q 3350 1459 3225 1620 
Q 3100 1781 2813 1891 
Q 2628 1963 1997 2114 
Q 1366 2266 1113 2400 
Q 784 2572 623 2826 
Q 463 3081 463 3397 
Q 463 3744 659 4045 
Q 856 4347 1234 4503 
Q 1613 4659 2075 4659 
Q 2584 4659 2973 4495 
Q 3363 4331 3572 4012 
Q 3781 3694 3797 3291 
L 3216 3247 
Q 3169 3681 2898 3903 
Q 2628 4125 2100 4125 
Q 1550 4125 1298 3923 
Q 1047 3722 1047 3438 
Q 1047 3191 1225 3031 
Q 1400 2872 2139 2705 
Q 2878 2538 3153 2413 
Q 3553 2228 3743 1945 
Q 3934 1663 3934 1294 
Q 3934 928 3725 604 
Q 3516 281 3123 101 
Q 2731 -78 2241 -78 
Q 1619 -78 1198 103 
Q 778 284 539 648 
Q 300 1013 288 1472 
z
" transform="scale(0.015625)"/>
        <path id="ArialMT-20" transform="scale(0.015625)"/>
        <path id="ArialMT-70" d="M 422 -1272 
L 422 3319 
L 934 3319 
L 934 2888 
Q 1116 3141 1344 3267 
Q 1572 3394 1897 3394 
Q 2322 3394 2647 3175 
Q 2972 2956 3137 2557 
Q 3303 2159 3303 1684 
Q 3303 1175 3120 767 
Q 2938 359 2589 142 
Q 2241 -75 1856 -75 
Q 1575 -75 1351 44 
Q 1128 163 984 344 
L 984 -1272 
L 422 -1272 
z
M 931 1641 
Q 931 1000 1190 694 
Q 1450 388 1819 388 
Q 2194 388 2461 705 
Q 2728 1022 2728 1688 
Q 2728 2322 2467 2637 
Q 2206 2953 1844 2953 
Q 1484 2953 1207 2617 
Q 931 2281 931 1641 
z
" transform="scale(0.015625)"/>
        <path id="ArialMT-72" d="M 416 0 
L 416 3319 
L 922 3319 
L 922 2816 
Q 1116 3169 1280 3281 
Q 1444 3394 1641 3394 
Q 1925 3394 2219 3213 
L 2025 2691 
Q 1819 2813 1613 2813 
Q 1428 2813 1281 2702 
Q 1134 2591 1072 2394 
Q 978 2094 978 1738 
L 978 0 
L 416 0 
z
" transform="scale(0.015625)"/>
        <path id="ArialMT-6f" d="M 213 1659 
Q 213 2581 725 3025 
Q 1153 3394 1769 3394 
Q 2453 3394 2887 2945 
Q 3322 2497 3322 1706 
Q 3322 1066 3130 698 
Q 2938 331 2570 128 
Q 2203 -75 1769 -75 
Q 1072 -75 642 372 
Q 213 819 213 1659 
z
M 791 1659 
Q 791 1022 1069 705 
Q 1347 388 1769 388 
Q 2188 388 2466 706 
Q 2744 1025 2744 1678 
Q 2744 2294 2464 2611 
Q 2184 2928 1769 2928 
Q 1347 2928 1069 2612 
Q 791 2297 791 1659 
z
" transform="scale(0.015625)"/>
        <path id="ArialMT-64" d="M 2575 0 
L 2575 419 
Q 2259 -75 1647 -75 
Q 1250 -75 917 144 
Q 584 363 401 755 
Q 219 1147 219 1656 
Q 219 2153 384 2558 
Q 550 2963 881 3178 
Q 1213 3394 1622 3394 
Q 1922 3394 2156 3267 
Q 2391 3141 2538 2938 
L 2538 4581 
L 3097 4581 
L 3097 0 
L 2575 0 
z
M 797 1656 
Q 797 1019 1065 703 
Q 1334 388 1700 388 
Q 2069 388 2326 689 
Q 2584 991 2584 1609 
Q 2584 2291 2321 2609 
Q 2059 2928 1675 2928 
Q 1300 2928 1048 2622 
Q 797 2316 797 1656 
z
" transform="scale(0.015625)"/>
        <path id="ArialMT-75" d="M 2597 0 
L 2597 488 
Q 2209 -75 1544 -75 
Q 1250 -75 995 37 
Q 741 150 617 320 
Q 494 491 444 738 
Q 409 903 409 1263 
L 409 3319 
L 972 3319 
L 972 1478 
Q 972 1038 1006 884 
Q 1059 663 1231 536 
Q 1403 409 1656 409 
Q 1909 409 2131 539 
Q 2353 669 2445 892 
Q 2538 1116 2538 1541 
L 2538 3319 
L 3100 3319 
L 3100 0 
L 2597 0 
z
" transform="scale(0.015625)"/>
        <path id="ArialMT-63" d="M 2588 1216 
L 3141 1144 
Q 3050 572 2676 248 
Q 2303 -75 1759 -75 
Q 1078 -75 664 370 
Q 250 816 250 1647 
Q 250 2184 428 2587 
Q 606 2991 970 3192 
Q 1334 3394 1763 3394 
Q 2303 3394 2647 3120 
Q 2991 2847 3088 2344 
L 2541 2259 
Q 2463 2594 2264 2762 
Q 2066 2931 1784 2931 
Q 1359 2931 1093 2626 
Q 828 2322 828 1663 
Q 828 994 1084 691 
Q 1341 388 1753 388 
Q 2084 388 2306 591 
Q 2528 794 2588 1216 
z
" transform="scale(0.015625)"/>
        <path id="ArialMT-74" d="M 1650 503 
L 1731 6 
Q 1494 -44 1306 -44 
Q 1000 -44 831 53 
Q 663 150 594 308 
Q 525 466 525 972 
L 525 2881 
L 113 2881 
L 113 3319 
L 525 3319 
L 525 4141 
L 1084 4478 
L 1084 3319 
L 1650 3319 
L 1650 2881 
L 1084 2881 
L 1084 941 
Q 1084 700 1114 631 
Q 1144 563 1211 522 
Q 1278 481 1403 481 
Q 1497 481 1650 503 
z
" transform="scale(0.015625)"/>
        <path id="ArialMT-73" d="M 197 991 
L 753 1078 
Q 800 744 1014 566 
Q 1228 388 1613 388 
Q 2000 388 2187 545 
Q 2375 703 2375 916 
Q 2375 1106 2209 1216 
Q 2094 1291 1634 1406 
Q 1016 1563 777 1677 
Q 538 1791 414 1992 
Q 291 2194 291 2438 
Q 291 2659 392 2848 
Q 494 3038 669 3163 
Q 800 3259 1026 3326 
Q 1253 3394 1513 3394 
Q 1903 3394 2198 3281 
Q 2494 3169 2634 2976 
Q 2775 2784 2828 2463 
L 2278 2388 
Q 2241 2644 2061 2787 
Q 1881 2931 1553 2931 
Q 1166 2931 1000 2803 
Q 834 2675 834 2503 
Q 834 2394 903 2306 
Q 972 2216 1119 2156 
Q 1203 2125 1616 2013 
Q 2213 1853 2448 1751 
Q 2684 1650 2818 1456 
Q 2953 1263 2953 975 
Q 2953 694 2789 445 
Q 2625 197 2315 61 
Q 2006 -75 1616 -75 
Q 969 -75 630 194 
Q 291 463 197 991 
z
" transform="scale(0.015625)"/>
       </defs>
       <use xlink:href="#ArialMT-50"/>
       <use xlink:href="#ArialMT-4b" transform="translate(66.699219 0)"/>
       <use xlink:href="#ArialMT-53" transform="translate(133.398438 0)"/>
       <use xlink:href="#ArialMT-20" transform="translate(200.097656 0)"/>
       <use xlink:href="#ArialMT-70" transform="translate(227.880859 0)"/>
       <use xlink:href="#ArialMT-72" transform="translate(283.496094 0)"/>
       <use xlink:href="#ArialMT-6f" transform="translate(316.796875 0)"/>
       <use xlink:href="#ArialMT-64" transform="translate(372.412109 0)"/>
       <use xlink:href="#ArialMT-75" transform="translate(428.027344 0)"/>
       <use xlink:href="#ArialMT-63" transform="translate(483.642578 0)"/>
       <use xlink:href="#ArialMT-74" transform="translate(533.642578 0)"/>
       <use xlink:href="#ArialMT-73" transform="translate(561.425781 0)"/>
      </g>
     </g>
    </g>
    <g id="xtick_2">
     <g id="text_2">
      <!-- PKS + BIO 1 products -->
      <g style="fill: #262626" transform="translate(188.570584 332.185305) rotate(-20) scale(0.14 -0.14)">
       <defs>
        <path id="ArialMT-2b" d="M 1603 741 
L 1603 1997 
L 356 1997 
L 356 2522 
L 1603 2522 
L 1603 3769 
L 2134 3769 
L 2134 2522 
L 3381 2522 
L 3381 1997 
L 2134 1997 
L 2134 741 
L 1603 741 
z
" transform="scale(0.015625)"/>
        <path id="ArialMT-42" d="M 469 0 
L 469 4581 
L 2188 4581 
Q 2713 4581 3030 4442 
Q 3347 4303 3526 4014 
Q 3706 3725 3706 3409 
Q 3706 3116 3547 2856 
Q 3388 2597 3066 2438 
Q 3481 2316 3704 2022 
Q 3928 1728 3928 1328 
Q 3928 1006 3792 729 
Q 3656 453 3456 303 
Q 3256 153 2954 76 
Q 2653 0 2216 0 
L 469 0 
z
M 1075 2656 
L 2066 2656 
Q 2469 2656 2644 2709 
Q 2875 2778 2992 2937 
Q 3109 3097 3109 3338 
Q 3109 3566 3000 3739 
Q 2891 3913 2687 3977 
Q 2484 4041 1991 4041 
L 1075 4041 
L 1075 2656 
z
M 1075 541 
L 2216 541 
Q 2509 541 2628 563 
Q 2838 600 2978 687 
Q 3119 775 3209 942 
Q 3300 1109 3300 1328 
Q 3300 1584 3169 1773 
Q 3038 1963 2805 2039 
Q 2572 2116 2134 2116 
L 1075 2116 
L 1075 541 
z
" transform="scale(0.015625)"/>
        <path id="ArialMT-49" d="M 597 0 
L 597 4581 
L 1203 4581 
L 1203 0 
L 597 0 
z
" transform="scale(0.015625)"/>
        <path id="ArialMT-4f" d="M 309 2231 
Q 309 3372 921 4017 
Q 1534 4663 2503 4663 
Q 3138 4663 3647 4359 
Q 4156 4056 4423 3514 
Q 4691 2972 4691 2284 
Q 4691 1588 4409 1038 
Q 4128 488 3612 205 
Q 3097 -78 2500 -78 
Q 1853 -78 1343 234 
Q 834 547 571 1087 
Q 309 1628 309 2231 
z
M 934 2222 
Q 934 1394 1379 917 
Q 1825 441 2497 441 
Q 3181 441 3623 922 
Q 4066 1403 4066 2288 
Q 4066 2847 3877 3264 
Q 3688 3681 3323 3911 
Q 2959 4141 2506 4141 
Q 1863 4141 1398 3698 
Q 934 3256 934 2222 
z
" transform="scale(0.015625)"/>
        <path id="ArialMT-31" d="M 2384 0 
L 1822 0 
L 1822 3584 
Q 1619 3391 1289 3197 
Q 959 3003 697 2906 
L 697 3450 
Q 1169 3672 1522 3987 
Q 1875 4303 2022 4600 
L 2384 4600 
L 2384 0 
z
" transform="scale(0.015625)"/>
       </defs>
       <use xlink:href="#ArialMT-50"/>
       <use xlink:href="#ArialMT-4b" transform="translate(66.699219 0)"/>
       <use xlink:href="#ArialMT-53" transform="translate(133.398438 0)"/>
       <use xlink:href="#ArialMT-20" transform="translate(200.097656 0)"/>
       <use xlink:href="#ArialMT-2b" transform="translate(227.880859 0)"/>
       <use xlink:href="#ArialMT-20" transform="translate(286.279297 0)"/>
       <use xlink:href="#ArialMT-42" transform="translate(314.0625 0)"/>
       <use xlink:href="#ArialMT-49" transform="translate(380.761719 0)"/>
       <use xlink:href="#ArialMT-4f" transform="translate(408.544922 0)"/>
       <use xlink:href="#ArialMT-20" transform="translate(486.328125 0)"/>
       <use xlink:href="#ArialMT-31" transform="translate(514.111328 0)"/>
       <use xlink:href="#ArialMT-20" transform="translate(569.726562 0)"/>
       <use xlink:href="#ArialMT-70" transform="translate(597.509766 0)"/>
       <use xlink:href="#ArialMT-72" transform="translate(653.125 0)"/>
       <use xlink:href="#ArialMT-6f" transform="translate(686.425781 0)"/>
       <use xlink:href="#ArialMT-64" transform="translate(742.041016 0)"/>
       <use xlink:href="#ArialMT-75" transform="translate(797.65625 0)"/>
       <use xlink:href="#ArialMT-63" transform="translate(853.271484 0)"/>
       <use xlink:href="#ArialMT-74" transform="translate(903.271484 0)"/>
       <use xlink:href="#ArialMT-73" transform="translate(931.054688 0)"/>
      </g>
     </g>
    </g>
    <g id="xtick_3">
     <g id="text_3">
      <!-- PKS + BIO 2 products -->
      <g style="fill: #262626" transform="translate(315.861417 332.185305) rotate(-20) scale(0.14 -0.14)">
       <defs>
        <path id="ArialMT-32" d="M 3222 541 
L 3222 0 
L 194 0 
Q 188 203 259 391 
Q 375 700 629 1000 
Q 884 1300 1366 1694 
Q 2113 2306 2375 2664 
Q 2638 3022 2638 3341 
Q 2638 3675 2398 3904 
Q 2159 4134 1775 4134 
Q 1369 4134 1125 3890 
Q 881 3647 878 3216 
L 300 3275 
Q 359 3922 746 4261 
Q 1134 4600 1788 4600 
Q 2447 4600 2831 4234 
Q 3216 3869 3216 3328 
Q 3216 3053 3103 2787 
Q 2991 2522 2730 2228 
Q 2469 1934 1863 1422 
Q 1356 997 1212 845 
Q 1069 694 975 541 
L 3222 541 
z
" transform="scale(0.015625)"/>
       </defs>
       <use xlink:href="#ArialMT-50"/>
       <use xlink:href="#ArialMT-4b" transform="translate(66.699219 0)"/>
       <use xlink:href="#ArialMT-53" transform="translate(133.398438 0)"/>
       <use xlink:href="#ArialMT-20" transform="translate(200.097656 0)"/>
       <use xlink:href="#ArialMT-2b" transform="translate(227.880859 0)"/>
       <use xlink:href="#ArialMT-20" transform="translate(286.279297 0)"/>
       <use xlink:href="#ArialMT-42" transform="translate(314.0625 0)"/>
       <use xlink:href="#ArialMT-49" transform="translate(380.761719 0)"/>
       <use xlink:href="#ArialMT-4f" transform="translate(408.544922 0)"/>
       <use xlink:href="#ArialMT-20" transform="translate(486.328125 0)"/>
       <use xlink:href="#ArialMT-32" transform="translate(514.111328 0)"/>
       <use xlink:href="#ArialMT-20" transform="translate(569.726562 0)"/>
       <use xlink:href="#ArialMT-70" transform="translate(597.509766 0)"/>
       <use xlink:href="#ArialMT-72" transform="translate(653.125 0)"/>
       <use xlink:href="#ArialMT-6f" transform="translate(686.425781 0)"/>
       <use xlink:href="#ArialMT-64" transform="translate(742.041016 0)"/>
       <use xlink:href="#ArialMT-75" transform="translate(797.65625 0)"/>
       <use xlink:href="#ArialMT-63" transform="translate(853.271484 0)"/>
       <use xlink:href="#ArialMT-74" transform="translate(903.271484 0)"/>
       <use xlink:href="#ArialMT-73" transform="translate(931.054688 0)"/>
      </g>
     </g>
    </g>
   </g>
   <g id="matplotlib.axis_2">
    <g id="ytick_1">
     <g id="text_4">
      <!-- 0.0 -->
      <g style="fill: #262626" transform="translate(28.876563 275.067635) scale(0.18 -0.18)">
       <defs>
        <path id="ArialMT-30" d="M 266 2259 
Q 266 3072 433 3567 
Q 600 4063 929 4331 
Q 1259 4600 1759 4600 
Q 2128 4600 2406 4451 
Q 2684 4303 2865 4023 
Q 3047 3744 3150 3342 
Q 3253 2941 3253 2259 
Q 3253 1453 3087 958 
Q 2922 463 2592 192 
Q 2263 -78 1759 -78 
Q 1097 -78 719 397 
Q 266 969 266 2259 
z
M 844 2259 
Q 844 1131 1108 757 
Q 1372 384 1759 384 
Q 2147 384 2411 759 
Q 2675 1134 2675 2259 
Q 2675 3391 2411 3762 
Q 2147 4134 1753 4134 
Q 1366 4134 1134 3806 
Q 844 3388 844 2259 
z
" transform="scale(0.015625)"/>
        <path id="ArialMT-2e" d="M 581 0 
L 581 641 
L 1222 641 
L 1222 0 
L 581 0 
z
" transform="scale(0.015625)"/>
       </defs>
       <use xlink:href="#ArialMT-30"/>
       <use xlink:href="#ArialMT-2e" transform="translate(55.615234 0)"/>
       <use xlink:href="#ArialMT-30" transform="translate(83.398438 0)"/>
      </g>
     </g>
    </g>
    <g id="ytick_2">
     <g id="text_5">
      <!-- 0.2 -->
      <g style="fill: #262626" transform="translate(28.876563 234.22298) scale(0.18 -0.18)">
       <use xlink:href="#ArialMT-30"/>
       <use xlink:href="#ArialMT-2e" transform="translate(55.615234 0)"/>
       <use xlink:href="#ArialMT-32" transform="translate(83.398438 0)"/>
      </g>
     </g>
    </g>
    <g id="ytick_3">
     <g id="text_6">
      <!-- 0.4 -->
      <g style="fill: #262626" transform="translate(28.876563 193.378325) scale(0.18 -0.18)">
       <defs>
        <path id="ArialMT-34" d="M 2069 0 
L 2069 1097 
L 81 1097 
L 81 1613 
L 2172 4581 
L 2631 4581 
L 2631 1613 
L 3250 1613 
L 3250 1097 
L 2631 1097 
L 2631 0 
L 2069 0 
z
M 2069 1613 
L 2069 3678 
L 634 1613 
L 2069 1613 
z
" transform="scale(0.015625)"/>
       </defs>
       <use xlink:href="#ArialMT-30"/>
       <use xlink:href="#ArialMT-2e" transform="translate(55.615234 0)"/>
       <use xlink:href="#ArialMT-34" transform="translate(83.398438 0)"/>
      </g>
     </g>
    </g>
    <g id="ytick_4">
     <g id="text_7">
      <!-- 0.6 -->
      <g style="fill: #262626" transform="translate(28.876563 152.533669) scale(0.18 -0.18)">
       <defs>
        <path id="ArialMT-36" d="M 3184 3459 
L 2625 3416 
Q 2550 3747 2413 3897 
Q 2184 4138 1850 4138 
Q 1581 4138 1378 3988 
Q 1113 3794 959 3422 
Q 806 3050 800 2363 
Q 1003 2672 1297 2822 
Q 1591 2972 1913 2972 
Q 2475 2972 2870 2558 
Q 3266 2144 3266 1488 
Q 3266 1056 3080 686 
Q 2894 316 2569 119 
Q 2244 -78 1831 -78 
Q 1128 -78 684 439 
Q 241 956 241 2144 
Q 241 3472 731 4075 
Q 1159 4600 1884 4600 
Q 2425 4600 2770 4297 
Q 3116 3994 3184 3459 
z
M 888 1484 
Q 888 1194 1011 928 
Q 1134 663 1356 523 
Q 1578 384 1822 384 
Q 2178 384 2434 671 
Q 2691 959 2691 1453 
Q 2691 1928 2437 2201 
Q 2184 2475 1800 2475 
Q 1419 2475 1153 2201 
Q 888 1928 888 1484 
z
" transform="scale(0.015625)"/>
       </defs>
       <use xlink:href="#ArialMT-30"/>
       <use xlink:href="#ArialMT-2e" transform="translate(55.615234 0)"/>
       <use xlink:href="#ArialMT-36" transform="translate(83.398438 0)"/>
      </g>
     </g>
    </g>
    <g id="ytick_5">
     <g id="text_8">
      <!-- 0.8 -->
      <g style="fill: #262626" transform="translate(28.876563 111.689014) scale(0.18 -0.18)">
       <defs>
        <path id="ArialMT-38" d="M 1131 2484 
Q 781 2613 612 2850 
Q 444 3088 444 3419 
Q 444 3919 803 4259 
Q 1163 4600 1759 4600 
Q 2359 4600 2725 4251 
Q 3091 3903 3091 3403 
Q 3091 3084 2923 2848 
Q 2756 2613 2416 2484 
Q 2838 2347 3058 2040 
Q 3278 1734 3278 1309 
Q 3278 722 2862 322 
Q 2447 -78 1769 -78 
Q 1091 -78 675 323 
Q 259 725 259 1325 
Q 259 1772 486 2073 
Q 713 2375 1131 2484 
z
M 1019 3438 
Q 1019 3113 1228 2906 
Q 1438 2700 1772 2700 
Q 2097 2700 2305 2904 
Q 2513 3109 2513 3406 
Q 2513 3716 2298 3927 
Q 2084 4138 1766 4138 
Q 1444 4138 1231 3931 
Q 1019 3725 1019 3438 
z
M 838 1322 
Q 838 1081 952 856 
Q 1066 631 1291 507 
Q 1516 384 1775 384 
Q 2178 384 2440 643 
Q 2703 903 2703 1303 
Q 2703 1709 2433 1975 
Q 2163 2241 1756 2241 
Q 1359 2241 1098 1978 
Q 838 1716 838 1322 
z
" transform="scale(0.015625)"/>
       </defs>
       <use xlink:href="#ArialMT-30"/>
       <use xlink:href="#ArialMT-2e" transform="translate(55.615234 0)"/>
       <use xlink:href="#ArialMT-38" transform="translate(83.398438 0)"/>
      </g>
     </g>
    </g>
    <g id="ytick_6">
     <g id="text_9">
      <!-- 1.0 -->
      <g style="fill: #262626" transform="translate(28.876563 70.844359) scale(0.18 -0.18)">
       <use xlink:href="#ArialMT-31"/>
       <use xlink:href="#ArialMT-2e" transform="translate(55.615234 0)"/>
       <use xlink:href="#ArialMT-30" transform="translate(83.398438 0)"/>
      </g>
     </g>
    </g>
    <g id="text_10">
     <!-- Chemical similarity score -->
     <g style="fill: #262626" transform="translate(21.719531 239.231708) rotate(-90) scale(0.15 -0.15)">
      <defs>
       <path id="ArialMT-43" d="M 3763 1606 
L 4369 1453 
Q 4178 706 3683 314 
Q 3188 -78 2472 -78 
Q 1731 -78 1267 223 
Q 803 525 561 1097 
Q 319 1669 319 2325 
Q 319 3041 592 3573 
Q 866 4106 1370 4382 
Q 1875 4659 2481 4659 
Q 3169 4659 3637 4309 
Q 4106 3959 4291 3325 
L 3694 3184 
Q 3534 3684 3231 3912 
Q 2928 4141 2469 4141 
Q 1941 4141 1586 3887 
Q 1231 3634 1087 3207 
Q 944 2781 944 2328 
Q 944 1744 1114 1308 
Q 1284 872 1643 656 
Q 2003 441 2422 441 
Q 2931 441 3284 734 
Q 3638 1028 3763 1606 
z
" transform="scale(0.015625)"/>
       <path id="ArialMT-68" d="M 422 0 
L 422 4581 
L 984 4581 
L 984 2938 
Q 1378 3394 1978 3394 
Q 2347 3394 2619 3248 
Q 2891 3103 3008 2847 
Q 3125 2591 3125 2103 
L 3125 0 
L 2563 0 
L 2563 2103 
Q 2563 2525 2380 2717 
Q 2197 2909 1863 2909 
Q 1613 2909 1392 2779 
Q 1172 2650 1078 2428 
Q 984 2206 984 1816 
L 984 0 
L 422 0 
z
" transform="scale(0.015625)"/>
       <path id="ArialMT-65" d="M 2694 1069 
L 3275 997 
Q 3138 488 2766 206 
Q 2394 -75 1816 -75 
Q 1088 -75 661 373 
Q 234 822 234 1631 
Q 234 2469 665 2931 
Q 1097 3394 1784 3394 
Q 2450 3394 2872 2941 
Q 3294 2488 3294 1666 
Q 3294 1616 3291 1516 
L 816 1516 
Q 847 969 1125 678 
Q 1403 388 1819 388 
Q 2128 388 2347 550 
Q 2566 713 2694 1069 
z
M 847 1978 
L 2700 1978 
Q 2663 2397 2488 2606 
Q 2219 2931 1791 2931 
Q 1403 2931 1139 2672 
Q 875 2413 847 1978 
z
" transform="scale(0.015625)"/>
       <path id="ArialMT-6d" d="M 422 0 
L 422 3319 
L 925 3319 
L 925 2853 
Q 1081 3097 1340 3245 
Q 1600 3394 1931 3394 
Q 2300 3394 2536 3241 
Q 2772 3088 2869 2813 
Q 3263 3394 3894 3394 
Q 4388 3394 4653 3120 
Q 4919 2847 4919 2278 
L 4919 0 
L 4359 0 
L 4359 2091 
Q 4359 2428 4304 2576 
Q 4250 2725 4106 2815 
Q 3963 2906 3769 2906 
Q 3419 2906 3187 2673 
Q 2956 2441 2956 1928 
L 2956 0 
L 2394 0 
L 2394 2156 
Q 2394 2531 2256 2718 
Q 2119 2906 1806 2906 
Q 1569 2906 1367 2781 
Q 1166 2656 1075 2415 
Q 984 2175 984 1722 
L 984 0 
L 422 0 
z
" transform="scale(0.015625)"/>
       <path id="ArialMT-69" d="M 425 3934 
L 425 4581 
L 988 4581 
L 988 3934 
L 425 3934 
z
M 425 0 
L 425 3319 
L 988 3319 
L 988 0 
L 425 0 
z
" transform="scale(0.015625)"/>
       <path id="ArialMT-61" d="M 2588 409 
Q 2275 144 1986 34 
Q 1697 -75 1366 -75 
Q 819 -75 525 192 
Q 231 459 231 875 
Q 231 1119 342 1320 
Q 453 1522 633 1644 
Q 813 1766 1038 1828 
Q 1203 1872 1538 1913 
Q 2219 1994 2541 2106 
Q 2544 2222 2544 2253 
Q 2544 2597 2384 2738 
Q 2169 2928 1744 2928 
Q 1347 2928 1158 2789 
Q 969 2650 878 2297 
L 328 2372 
Q 403 2725 575 2942 
Q 747 3159 1072 3276 
Q 1397 3394 1825 3394 
Q 2250 3394 2515 3294 
Q 2781 3194 2906 3042 
Q 3031 2891 3081 2659 
Q 3109 2516 3109 2141 
L 3109 1391 
Q 3109 606 3145 398 
Q 3181 191 3288 0 
L 2700 0 
Q 2613 175 2588 409 
z
M 2541 1666 
Q 2234 1541 1622 1453 
Q 1275 1403 1131 1340 
Q 988 1278 909 1158 
Q 831 1038 831 891 
Q 831 666 1001 516 
Q 1172 366 1500 366 
Q 1825 366 2078 508 
Q 2331 650 2450 897 
Q 2541 1088 2541 1459 
L 2541 1666 
z
" transform="scale(0.015625)"/>
       <path id="ArialMT-6c" d="M 409 0 
L 409 4581 
L 972 4581 
L 972 0 
L 409 0 
z
" transform="scale(0.015625)"/>
       <path id="ArialMT-79" d="M 397 -1278 
L 334 -750 
Q 519 -800 656 -800 
Q 844 -800 956 -737 
Q 1069 -675 1141 -563 
Q 1194 -478 1313 -144 
Q 1328 -97 1363 -6 
L 103 3319 
L 709 3319 
L 1400 1397 
Q 1534 1031 1641 628 
Q 1738 1016 1872 1384 
L 2581 3319 
L 3144 3319 
L 1881 -56 
Q 1678 -603 1566 -809 
Q 1416 -1088 1222 -1217 
Q 1028 -1347 759 -1347 
Q 597 -1347 397 -1278 
z
" transform="scale(0.015625)"/>
      </defs>
      <use xlink:href="#ArialMT-43"/>
      <use xlink:href="#ArialMT-68" transform="translate(72.216797 0)"/>
      <use xlink:href="#ArialMT-65" transform="translate(127.832031 0)"/>
      <use xlink:href="#ArialMT-6d" transform="translate(183.447266 0)"/>
      <use xlink:href="#ArialMT-69" transform="translate(266.748047 0)"/>
      <use xlink:href="#ArialMT-63" transform="translate(288.964844 0)"/>
      <use xlink:href="#ArialMT-61" transform="translate(338.964844 0)"/>
      <use xlink:href="#ArialMT-6c" transform="translate(394.580078 0)"/>
      <use xlink:href="#ArialMT-20" transform="translate(416.796875 0)"/>
      <use xlink:href="#ArialMT-73" transform="translate(444.580078 0)"/>
      <use xlink:href="#ArialMT-69" transform="translate(494.580078 0)"/>
      <use xlink:href="#ArialMT-6d" transform="translate(516.796875 0)"/>
      <use xlink:href="#ArialMT-69" transform="translate(600.097656 0)"/>
      <use xlink:href="#ArialMT-6c" transform="translate(622.314453 0)"/>
      <use xlink:href="#ArialMT-61" transform="translate(644.53125 0)"/>
      <use xlink:href="#ArialMT-72" transform="translate(700.146484 0)"/>
      <use xlink:href="#ArialMT-69" transform="translate(733.447266 0)"/>
      <use xlink:href="#ArialMT-74" transform="translate(755.664062 0)"/>
      <use xlink:href="#ArialMT-79" transform="translate(783.447266 0)"/>
      <use xlink:href="#ArialMT-20" transform="translate(833.447266 0)"/>
      <use xlink:href="#ArialMT-73" transform="translate(861.230469 0)"/>
      <use xlink:href="#ArialMT-63" transform="translate(911.230469 0)"/>
      <use xlink:href="#ArialMT-6f" transform="translate(961.230469 0)"/>
      <use xlink:href="#ArialMT-72" transform="translate(1016.845703 0)"/>
      <use xlink:href="#ArialMT-65" transform="translate(1050.146484 0)"/>
     </g>
    </g>
   </g>
   <g id="FillBetweenPolyCollection_1">
    <defs>
     <path id="m9003a1e066" d="M 138.030385 -99.665871 
L 111.053573 -99.665871 
L 110.132757 -101.282382 
L 109.218973 -102.898894 
L 108.318667 -104.515405 
L 107.437991 -106.131916 
L 106.582671 -107.748427 
L 105.75787 -109.364939 
L 104.968072 -110.98145 
L 104.216955 -112.597961 
L 103.507292 -114.214472 
L 102.840845 -115.830984 
L 102.218285 -117.447495 
L 101.639124 -119.064006 
L 101.101664 -120.680517 
L 100.602981 -122.297029 
L 100.138924 -123.91354 
L 99.704167 -125.530051 
L 99.292282 -127.146562 
L 98.895865 -128.763074 
L 98.506701 -130.379585 
L 98.11597 -131.996096 
L 97.714491 -133.612607 
L 97.292992 -135.229119 
L 96.842413 -136.84563 
L 96.354207 -138.462141 
L 95.820647 -140.078652 
L 95.235113 -141.695164 
L 94.592346 -143.311675 
L 93.888669 -144.928186 
L 93.122141 -146.544697 
L 92.292664 -148.161209 
L 91.402016 -149.77772 
L 90.453824 -151.394231 
L 89.45347 -153.010743 
L 88.407953 -154.627254 
L 87.325692 -156.243765 
L 86.216307 -157.860276 
L 85.090373 -159.476788 
L 83.959167 -161.093299 
L 82.834411 -162.70981 
L 81.728036 -164.326321 
L 80.65195 -165.942833 
L 79.61783 -167.559344 
L 78.636937 -169.175855 
L 77.719942 -170.792366 
L 76.876773 -172.408878 
L 76.116473 -174.025389 
L 75.447054 -175.6419 
L 74.875371 -177.258411 
L 74.406987 -178.874923 
L 74.046046 -180.491434 
L 73.795155 -182.107945 
L 73.655276 -183.724456 
L 73.625646 -185.340968 
L 73.703721 -186.957479 
L 73.885167 -188.57399 
L 74.163903 -190.190501 
L 74.532194 -191.807013 
L 74.980818 -193.423524 
L 75.499294 -195.040035 
L 76.076172 -196.656546 
L 76.699386 -198.273058 
L 77.356644 -199.889569 
L 78.035862 -201.50608 
L 78.725597 -203.122591 
L 79.415487 -204.739103 
L 80.096649 -206.355614 
L 80.762039 -207.972125 
L 81.406732 -209.588636 
L 82.028119 -211.205148 
L 82.626001 -212.821659 
L 83.202579 -214.43817 
L 83.762325 -216.054681 
L 84.311754 -217.671193 
L 84.859093 -219.287704 
L 85.413868 -220.904215 
L 85.986436 -222.520726 
L 86.587468 -224.137238 
L 87.227433 -225.753749 
L 87.916088 -227.37026 
L 88.66201 -228.986772 
L 89.472192 -230.603283 
L 90.351726 -232.219794 
L 91.30357 -233.836305 
L 92.328428 -235.452817 
L 93.424734 -237.069328 
L 94.588734 -238.685839 
L 95.814658 -240.30235 
L 97.094971 -241.918862 
L 98.420686 -243.535373 
L 99.781708 -245.151884 
L 101.167206 -246.768395 
L 102.565981 -248.384907 
L 103.966815 -250.001418 
L 105.358792 -251.617929 
L 106.731571 -253.23444 
L 108.075615 -254.850952 
L 109.382359 -256.467463 
L 110.644327 -258.083974 
L 111.855202 -259.700485 
L 137.228756 -259.700485 
L 137.228756 -259.700485 
L 138.43963 -258.083974 
L 139.701599 -256.467463 
L 141.008342 -254.850952 
L 142.352386 -253.23444 
L 143.725166 -251.617929 
L 145.117142 -250.001418 
L 146.517976 -248.384907 
L 147.916751 -246.768395 
L 149.30225 -245.151884 
L 150.663272 -243.535373 
L 151.988986 -241.918862 
L 153.2693 -240.30235 
L 154.495223 -238.685839 
L 155.659223 -237.069328 
L 156.75553 -235.452817 
L 157.780388 -233.836305 
L 158.732232 -232.219794 
L 159.611765 -230.603283 
L 160.421948 -228.986772 
L 161.167869 -227.37026 
L 161.856524 -225.753749 
L 162.49649 -224.137238 
L 163.097522 -222.520726 
L 163.670089 -220.904215 
L 164.224865 -219.287704 
L 164.772203 -217.671193 
L 165.321633 -216.054681 
L 165.881379 -214.43817 
L 166.457957 -212.821659 
L 167.055839 -211.205148 
L 167.677225 -209.588636 
L 168.321918 -207.972125 
L 168.987308 -206.355614 
L 169.668471 -204.739103 
L 170.35836 -203.122591 
L 171.048096 -201.50608 
L 171.727313 -199.889569 
L 172.384572 -198.273058 
L 173.007785 -196.656546 
L 173.584664 -195.040035 
L 174.103139 -193.423524 
L 174.551764 -191.807013 
L 174.920054 -190.190501 
L 175.19879 -188.57399 
L 175.380237 -186.957479 
L 175.458312 -185.340968 
L 175.428682 -183.724456 
L 175.288803 -182.107945 
L 175.037912 -180.491434 
L 174.676971 -178.874923 
L 174.208587 -177.258411 
L 173.636904 -175.6419 
L 172.967485 -174.025389 
L 172.207184 -172.408878 
L 171.364016 -170.792366 
L 170.447021 -169.175855 
L 169.466127 -167.559344 
L 168.432007 -165.942833 
L 167.355921 -164.326321 
L 166.249547 -162.70981 
L 165.124791 -161.093299 
L 163.993584 -159.476788 
L 162.86765 -157.860276 
L 161.758265 -156.243765 
L 160.676004 -154.627254 
L 159.630487 -153.010743 
L 158.630134 -151.394231 
L 157.681941 -149.77772 
L 156.791294 -148.161209 
L 155.961817 -146.544697 
L 155.195289 -144.928186 
L 154.491611 -143.311675 
L 153.848845 -141.695164 
L 153.26331 -140.078652 
L 152.729751 -138.462141 
L 152.241545 -136.84563 
L 151.790966 -135.229119 
L 151.369467 -133.612607 
L 150.967987 -131.996096 
L 150.577257 -130.379585 
L 150.188093 -128.763074 
L 149.791676 -127.146562 
L 149.379791 -125.530051 
L 148.945033 -123.91354 
L 148.480977 -122.297029 
L 147.982293 -120.680517 
L 147.444834 -119.064006 
L 146.865673 -117.447495 
L 146.243113 -115.830984 
L 145.576666 -114.214472 
L 144.867003 -112.597961 
L 144.115886 -110.98145 
L 143.326087 -109.364939 
L 142.501287 -107.748427 
L 141.645967 -106.131916 
L 140.765291 -104.515405 
L 139.864985 -102.898894 
L 138.951201 -101.282382 
L 138.030385 -99.665871 
z
" style="stroke: #3d3d3d; stroke-width: 1.25"/>
    </defs>
    <g clip-path="url(#p9fdd5d4f13)">
     <use xlink:href="#m9003a1e066" x="0" y="345.6" style="fill: #3274a1; stroke: #3d3d3d; stroke-width: 1.25"/>
    </g>
   </g>
   <g id="FillBetweenPolyCollection_2">
    <defs>
     <path id="maa1680d540" d="M 263.145386 -128.030215 
L 240.520237 -128.030215 
L 239.8808 -129.577361 
L 239.256958 -131.124507 
L 238.653003 -132.671653 
L 238.072849 -134.218799 
L 237.519947 -135.765945 
L 236.997213 -137.313091 
L 236.506968 -138.860237 
L 236.050899 -140.407383 
L 235.630037 -141.954529 
L 235.244751 -143.501675 
L 234.894765 -145.048821 
L 234.579199 -146.595967 
L 234.296619 -148.143113 
L 234.045113 -149.69026 
L 233.822379 -151.237406 
L 233.625817 -152.784552 
L 233.452642 -154.331698 
L 233.299984 -155.878844 
L 233.165001 -157.42599 
L 233.044966 -158.973136 
L 232.937361 -160.520282 
L 232.839936 -162.067428 
L 232.750756 -163.614574 
L 232.668219 -165.16172 
L 232.591041 -166.708866 
L 232.518226 -168.256012 
L 232.44899 -169.803158 
L 232.382673 -171.350304 
L 232.318622 -172.89745 
L 232.256061 -174.444596 
L 232.193955 -175.991742 
L 232.130863 -177.538888 
L 232.064815 -179.086034 
L 231.993192 -180.63318 
L 231.912636 -182.180326 
L 231.819003 -183.727472 
L 231.707342 -185.274618 
L 231.571928 -186.821764 
L 231.406337 -188.36891 
L 231.203576 -189.916056 
L 230.956247 -191.463202 
L 230.656756 -193.010348 
L 230.297558 -194.557494 
L 229.871413 -196.104641 
L 229.371669 -197.651787 
L 228.792533 -199.198933 
L 228.129335 -200.746079 
L 227.378773 -202.293225 
L 226.539116 -203.840371 
L 225.610369 -205.387517 
L 224.594392 -206.934663 
L 223.494953 -208.481809 
L 222.317735 -210.028955 
L 221.070284 -211.576101 
L 219.761892 -213.123247 
L 218.40345 -214.670393 
L 217.007236 -216.217539 
L 215.58669 -217.764685 
L 214.156144 -219.311831 
L 212.730548 -220.858977 
L 211.325184 -222.406123 
L 209.955381 -223.953269 
L 208.636242 -225.500415 
L 207.382384 -227.047561 
L 206.207707 -228.594707 
L 205.125176 -230.141853 
L 204.14665 -231.688999 
L 203.282722 -233.236145 
L 202.54261 -234.783291 
L 201.934058 -236.330437 
L 201.463287 -237.877583 
L 201.134958 -239.424729 
L 200.952171 -240.971875 
L 200.916478 -242.519022 
L 201.027934 -244.066168 
L 201.285145 -245.613314 
L 201.685357 -247.16046 
L 202.224537 -248.707606 
L 202.897489 -250.254752 
L 203.697963 -251.801898 
L 204.618782 -253.349044 
L 205.651973 -254.89619 
L 206.788896 -256.443336 
L 208.020386 -257.990482 
L 209.33688 -259.537628 
L 210.728547 -261.084774 
L 212.18541 -262.63192 
L 213.697458 -264.179066 
L 215.254751 -265.726212 
L 216.847507 -267.273358 
L 218.466186 -268.820504 
L 220.101552 -270.36765 
L 221.744728 -271.914796 
L 223.387243 -273.461942 
L 225.021059 -275.009088 
L 226.638603 -276.556234 
L 228.232782 -278.10338 
L 229.797 -279.650526 
L 231.325167 -281.197672 
L 272.340456 -281.197672 
L 272.340456 -281.197672 
L 273.868623 -279.650526 
L 275.43284 -278.10338 
L 277.02702 -276.556234 
L 278.644564 -275.009088 
L 280.27838 -273.461942 
L 281.920894 -271.914796 
L 283.564071 -270.36765 
L 285.199437 -268.820504 
L 286.818116 -267.273358 
L 288.410872 -265.726212 
L 289.968165 -264.179066 
L 291.480213 -262.63192 
L 292.937076 -261.084774 
L 294.328743 -259.537628 
L 295.645237 -257.990482 
L 296.876727 -256.443336 
L 298.01365 -254.89619 
L 299.046841 -253.349044 
L 299.96766 -251.801898 
L 300.768134 -250.254752 
L 301.441086 -248.707606 
L 301.980266 -247.16046 
L 302.380477 -245.613314 
L 302.637689 -244.066168 
L 302.749145 -242.519022 
L 302.713452 -240.971875 
L 302.530665 -239.424729 
L 302.202336 -237.877583 
L 301.731565 -236.330437 
L 301.123013 -234.783291 
L 300.3829 -233.236145 
L 299.518973 -231.688999 
L 298.540447 -230.141853 
L 297.457916 -228.594707 
L 296.283239 -227.047561 
L 295.029381 -225.500415 
L 293.710242 -223.953269 
L 292.340439 -222.406123 
L 290.935075 -220.858977 
L 289.509479 -219.311831 
L 288.078933 -217.764685 
L 286.658387 -216.217539 
L 285.262173 -214.670393 
L 283.903731 -213.123247 
L 282.595339 -211.576101 
L 281.347888 -210.028955 
L 280.17067 -208.481809 
L 279.071231 -206.934663 
L 278.055254 -205.387517 
L 277.126507 -203.840371 
L 276.28685 -202.293225 
L 275.536288 -200.746079 
L 274.87309 -199.198933 
L 274.293954 -197.651787 
L 273.79421 -196.104641 
L 273.368065 -194.557494 
L 273.008867 -193.010348 
L 272.709376 -191.463202 
L 272.462047 -189.916056 
L 272.259286 -188.36891 
L 272.093695 -186.821764 
L 271.958281 -185.274618 
L 271.84662 -183.727472 
L 271.752987 -182.180326 
L 271.672431 -180.63318 
L 271.600807 -179.086034 
L 271.53476 -177.538888 
L 271.471668 -175.991742 
L 271.409562 -174.444596 
L 271.347001 -172.89745 
L 271.28295 -171.350304 
L 271.216633 -169.803158 
L 271.147397 -168.256012 
L 271.074582 -166.708866 
L 270.997404 -165.16172 
L 270.914867 -163.614574 
L 270.825687 -162.067428 
L 270.728262 -160.520282 
L 270.620657 -158.973136 
L 270.500622 -157.42599 
L 270.365639 -155.878844 
L 270.212981 -154.331698 
L 270.039806 -152.784552 
L 269.843244 -151.237406 
L 269.62051 -149.69026 
L 269.369004 -148.143113 
L 269.086424 -146.595967 
L 268.770858 -145.048821 
L 268.420872 -143.501675 
L 268.035585 -141.954529 
L 267.614724 -140.407383 
L 267.158655 -138.860237 
L 266.66841 -137.313091 
L 266.145676 -135.765945 
L 265.592774 -134.218799 
L 265.01262 -132.671653 
L 264.408665 -131.124507 
L 263.784823 -129.577361 
L 263.145386 -128.030215 
z
" style="stroke: #3d3d3d; stroke-width: 1.25"/>
    </defs>
    <g clip-path="url(#p9fdd5d4f13)">
     <use xlink:href="#maa1680d540" x="0" y="345.6" style="fill: #e1812c; stroke: #3d3d3d; stroke-width: 1.25"/>
    </g>
   </g>
   <g id="FillBetweenPolyCollection_3">
    <defs>
     <path id="m0f03af4593" d="M 387.787497 -132.671653 
L 370.459791 -132.671653 
L 369.903602 -134.171916 
L 369.342187 -135.672179 
L 368.778397 -137.172442 
L 368.21529 -138.672704 
L 367.656114 -140.172967 
L 367.104292 -141.67323 
L 366.563393 -143.173493 
L 366.037093 -144.673756 
L 365.529139 -146.174019 
L 365.043291 -147.674281 
L 364.583263 -149.174544 
L 364.152657 -150.674807 
L 363.754888 -152.17507 
L 363.393113 -153.675333 
L 363.070147 -155.175595 
L 362.788393 -156.675858 
L 362.54977 -158.176121 
L 362.355644 -159.676384 
L 362.206779 -161.176647 
L 362.103291 -162.67691 
L 362.044617 -164.177172 
L 362.029501 -165.677435 
L 362.055996 -167.177698 
L 362.121475 -168.677961 
L 362.222667 -170.178224 
L 362.355696 -171.678486 
L 362.51614 -173.178749 
L 362.699098 -174.679012 
L 362.899261 -176.179275 
L 363.110994 -177.679538 
L 363.328417 -179.179801 
L 363.545491 -180.680063 
L 363.756094 -182.180326 
L 363.954106 -183.680589 
L 364.133479 -185.180852 
L 364.288307 -186.681115 
L 364.412886 -188.181377 
L 364.501771 -189.68164 
L 364.549821 -191.181903 
L 364.552241 -192.682166 
L 364.504618 -194.182429 
L 364.402943 -195.682692 
L 364.243637 -197.182954 
L 364.023568 -198.683217 
L 363.740056 -200.18348 
L 363.390887 -201.683743 
L 362.974316 -203.184006 
L 362.489063 -204.684269 
L 361.93432 -206.184531 
L 361.309743 -207.684794 
L 360.615456 -209.185057 
L 359.852044 -210.68532 
L 359.020561 -212.185583 
L 358.122529 -213.685845 
L 357.159949 -215.186108 
L 356.13531 -216.686371 
L 355.051602 -218.186634 
L 353.912339 -219.686897 
L 352.721579 -221.18716 
L 351.483943 -222.687422 
L 350.204639 -224.187685 
L 348.889485 -225.687948 
L 347.544919 -227.188211 
L 346.178003 -228.688474 
L 344.796426 -230.188736 
L 343.408478 -231.688999 
L 342.02302 -233.189262 
L 340.649431 -234.689525 
L 339.297536 -236.189788 
L 337.977518 -237.690051 
L 336.699811 -239.190313 
L 335.474977 -240.690576 
L 334.313564 -242.190839 
L 333.225966 -243.691102 
L 332.222266 -245.191365 
L 331.312086 -246.691627 
L 330.504435 -248.19189 
L 329.807573 -249.692153 
L 329.228882 -251.192416 
L 328.774759 -252.692679 
L 328.450531 -254.192942 
L 328.26038 -255.693204 
L 328.207311 -257.193467 
L 328.293124 -258.69373 
L 328.518418 -260.193993 
L 328.882614 -261.694256 
L 329.383987 -263.194519 
L 330.019721 -264.694781 
L 330.785964 -266.195044 
L 331.677896 -267.695307 
L 332.689798 -269.19557 
L 333.81512 -270.695833 
L 335.046552 -272.196095 
L 336.376091 -273.696358 
L 337.795108 -275.196621 
L 339.294413 -276.696884 
L 340.864325 -278.197147 
L 342.494739 -279.69741 
L 344.175201 -281.197672 
L 414.072087 -281.197672 
L 414.072087 -281.197672 
L 415.752549 -279.69741 
L 417.382963 -278.197147 
L 418.952875 -276.696884 
L 420.45218 -275.196621 
L 421.871197 -273.696358 
L 423.200736 -272.196095 
L 424.432168 -270.695833 
L 425.55749 -269.19557 
L 426.569392 -267.695307 
L 427.461324 -266.195044 
L 428.227567 -264.694781 
L 428.863301 -263.194519 
L 429.364675 -261.694256 
L 429.72887 -260.193993 
L 429.954165 -258.69373 
L 430.039977 -257.193467 
L 429.986908 -255.693204 
L 429.796757 -254.192942 
L 429.472529 -252.692679 
L 429.018407 -251.192416 
L 428.439716 -249.692153 
L 427.742853 -248.19189 
L 426.935202 -246.691627 
L 426.025022 -245.191365 
L 425.021322 -243.691102 
L 423.933724 -242.190839 
L 422.772312 -240.690576 
L 421.547477 -239.190313 
L 420.26977 -237.690051 
L 418.949753 -236.189788 
L 417.597857 -234.689525 
L 416.224268 -233.189262 
L 414.83881 -231.688999 
L 413.450862 -230.188736 
L 412.069285 -228.688474 
L 410.70237 -227.188211 
L 409.357803 -225.687948 
L 408.042649 -224.187685 
L 406.763346 -222.687422 
L 405.525709 -221.18716 
L 404.334949 -219.686897 
L 403.195686 -218.186634 
L 402.111979 -216.686371 
L 401.087339 -215.186108 
L 400.124759 -213.685845 
L 399.226728 -212.185583 
L 398.395245 -210.68532 
L 397.631833 -209.185057 
L 396.937545 -207.684794 
L 396.312968 -206.184531 
L 395.758225 -204.684269 
L 395.272973 -203.184006 
L 394.856401 -201.683743 
L 394.507233 -200.18348 
L 394.223721 -198.683217 
L 394.003651 -197.182954 
L 393.844346 -195.682692 
L 393.742671 -194.182429 
L 393.695047 -192.682166 
L 393.697468 -191.181903 
L 393.745518 -189.68164 
L 393.834402 -188.181377 
L 393.958981 -186.681115 
L 394.113809 -185.180852 
L 394.293182 -183.680589 
L 394.491194 -182.180326 
L 394.701798 -180.680063 
L 394.918871 -179.179801 
L 395.136294 -177.679538 
L 395.348027 -176.179275 
L 395.54819 -174.679012 
L 395.731148 -173.178749 
L 395.891592 -171.678486 
L 396.024621 -170.178224 
L 396.125813 -168.677961 
L 396.191292 -167.177698 
L 396.217787 -165.677435 
L 396.202671 -164.177172 
L 396.143997 -162.67691 
L 396.040509 -161.176647 
L 395.891644 -159.676384 
L 395.697519 -158.176121 
L 395.458895 -156.675858 
L 395.177141 -155.175595 
L 394.854176 -153.675333 
L 394.4924 -152.17507 
L 394.094632 -150.674807 
L 393.664025 -149.174544 
L 393.203997 -147.674281 
L 392.718149 -146.174019 
L 392.210195 -144.673756 
L 391.683896 -143.173493 
L 391.142996 -141.67323 
L 390.591174 -140.172967 
L 390.031998 -138.672704 
L 389.468891 -137.172442 
L 388.905101 -135.672179 
L 388.343686 -134.171916 
L 387.787497 -132.671653 
z
" style="stroke: #3d3d3d; stroke-width: 1.25"/>
    </defs>
    <g clip-path="url(#p9fdd5d4f13)">
     <use xlink:href="#m0f03af4593" x="0" y="345.6" style="fill: #3a923a; stroke: #3d3d3d; stroke-width: 1.25"/>
    </g>
   </g>
   <g id="line2d_1">
    <path d="M 124.541979 245.934129 
L 124.541979 85.899515 
" clip-path="url(#p9fdd5d4f13)" style="fill: none; stroke: #3d3d3d; stroke-width: 1.875; stroke-linecap: round"/>
   </g>
   <g id="line2d_2">
    <path d="M 124.541979 186.936294 
L 124.541979 132.476753 
" clip-path="url(#p9fdd5d4f13)" style="fill: none; stroke: #3d3d3d; stroke-width: 5.625; stroke-linecap: round"/>
   </g>
   <g id="line2d_3">
    <path d="M 124.541979 159.182874 
" clip-path="url(#p9fdd5d4f13)" style="fill: none; stroke: #3d3d3d; stroke-width: 2; stroke-linecap: round"/>
    <defs>
     <path id="m58bd0413eb" d="M 2.34375 0 
L -2.34375 -0 
" style="stroke: #ffffff; stroke-width: 1.125"/>
    </defs>
    <g clip-path="url(#p9fdd5d4f13)">
     <use xlink:href="#m58bd0413eb" x="124.541979" y="159.182874" style="fill: #ffffff; stroke: #ffffff; stroke-width: 1.125"/>
    </g>
   </g>
   <g id="line2d_4">
    <path d="M 251.832811 217.569785 
L 251.832811 64.402328 
" clip-path="url(#p9fdd5d4f13)" style="fill: none; stroke: #3d3d3d; stroke-width: 1.875; stroke-linecap: round"/>
   </g>
   <g id="line2d_5">
    <path d="M 251.832811 158.659224 
L 251.832811 94.138134 
" clip-path="url(#p9fdd5d4f13)" style="fill: none; stroke: #3d3d3d; stroke-width: 5.625; stroke-linecap: round"/>
   </g>
   <g id="line2d_6">
    <path d="M 251.832811 115.458147 
" clip-path="url(#p9fdd5d4f13)" style="fill: none; stroke: #3d3d3d; stroke-width: 2; stroke-linecap: round"/>
    <g clip-path="url(#p9fdd5d4f13)">
     <use xlink:href="#m58bd0413eb" x="251.832811" y="115.458147" style="fill: #ffffff; stroke: #ffffff; stroke-width: 1.125"/>
    </g>
   </g>
   <g id="line2d_7">
    <path d="M 379.123644 212.928347 
L 379.123644 64.402328 
" clip-path="url(#p9fdd5d4f13)" style="fill: none; stroke: #3d3d3d; stroke-width: 1.875; stroke-linecap: round"/>
   </g>
   <g id="line2d_8">
    <path d="M 379.123644 136.054528 
L 379.123644 83.432224 
" clip-path="url(#p9fdd5d4f13)" style="fill: none; stroke: #3d3d3d; stroke-width: 5.625; stroke-linecap: round"/>
   </g>
   <g id="line2d_9">
    <path d="M 379.123644 98.43954 
" clip-path="url(#p9fdd5d4f13)" style="fill: none; stroke: #3d3d3d; stroke-width: 2; stroke-linecap: round"/>
    <g clip-path="url(#p9fdd5d4f13)">
     <use xlink:href="#m58bd0413eb" x="379.123644" y="98.43954" style="fill: #ffffff; stroke: #ffffff; stroke-width: 1.125"/>
    </g>
   </g>
   <g id="patch_3">
    <path d="M 60.896563 268.625604 
L 60.896563 43.98 
" style="fill: none; stroke: #000000; stroke-linejoin: miter; stroke-linecap: square"/>
   </g>
   <g id="patch_4">
    <path d="M 442.76906 268.625604 
L 442.76906 43.98 
" style="fill: none; stroke: #000000; stroke-linejoin: miter; stroke-linecap: square"/>
   </g>
   <g id="patch_5">
    <path d="M 60.896563 268.625604 
L 442.76906 268.625604 
" style="fill: none; stroke: #000000; stroke-linejoin: miter; stroke-linecap: square"/>
   </g>
   <g id="patch_6">
    <path d="M 60.896563 43.98 
L 442.76906 43.98 
" style="fill: none; stroke: #000000; stroke-linejoin: miter; stroke-linecap: square"/>
   </g>
   <g id="text_11">
    <!-- Chemical similarity of BioPKS Pipeline products to targets  -->
    <g style="fill: #262626" transform="translate(58.009374 21.719531) scale(0.15 -0.15)">
     <defs>
      <path id="ArialMT-66" d="M 556 0 
L 556 2881 
L 59 2881 
L 59 3319 
L 556 3319 
L 556 3672 
Q 556 4006 616 4169 
Q 697 4388 901 4523 
Q 1106 4659 1475 4659 
Q 1713 4659 2000 4603 
L 1916 4113 
Q 1741 4144 1584 4144 
Q 1328 4144 1222 4034 
Q 1116 3925 1116 3625 
L 1116 3319 
L 1763 3319 
L 1763 2881 
L 1116 2881 
L 1116 0 
L 556 0 
z
" transform="scale(0.015625)"/>
      <path id="ArialMT-6e" d="M 422 0 
L 422 3319 
L 928 3319 
L 928 2847 
Q 1294 3394 1984 3394 
Q 2284 3394 2536 3286 
Q 2788 3178 2913 3003 
Q 3038 2828 3088 2588 
Q 3119 2431 3119 2041 
L 3119 0 
L 2556 0 
L 2556 2019 
Q 2556 2363 2490 2533 
Q 2425 2703 2258 2804 
Q 2091 2906 1866 2906 
Q 1506 2906 1245 2678 
Q 984 2450 984 1813 
L 984 0 
L 422 0 
z
" transform="scale(0.015625)"/>
      <path id="ArialMT-67" d="M 319 -275 
L 866 -356 
Q 900 -609 1056 -725 
Q 1266 -881 1628 -881 
Q 2019 -881 2231 -725 
Q 2444 -569 2519 -288 
Q 2563 -116 2559 434 
Q 2191 0 1641 0 
Q 956 0 581 494 
Q 206 988 206 1678 
Q 206 2153 378 2554 
Q 550 2956 876 3175 
Q 1203 3394 1644 3394 
Q 2231 3394 2613 2919 
L 2613 3319 
L 3131 3319 
L 3131 450 
Q 3131 -325 2973 -648 
Q 2816 -972 2473 -1159 
Q 2131 -1347 1631 -1347 
Q 1038 -1347 672 -1080 
Q 306 -813 319 -275 
z
M 784 1719 
Q 784 1066 1043 766 
Q 1303 466 1694 466 
Q 2081 466 2343 764 
Q 2606 1063 2606 1700 
Q 2606 2309 2336 2618 
Q 2066 2928 1684 2928 
Q 1309 2928 1046 2623 
Q 784 2319 784 1719 
z
" transform="scale(0.015625)"/>
     </defs>
     <use xlink:href="#ArialMT-43"/>
     <use xlink:href="#ArialMT-68" transform="translate(72.216797 0)"/>
     <use xlink:href="#ArialMT-65" transform="translate(127.832031 0)"/>
     <use xlink:href="#ArialMT-6d" transform="translate(183.447266 0)"/>
     <use xlink:href="#ArialMT-69" transform="translate(266.748047 0)"/>
     <use xlink:href="#ArialMT-63" transform="translate(288.964844 0)"/>
     <use xlink:href="#ArialMT-61" transform="translate(338.964844 0)"/>
     <use xlink:href="#ArialMT-6c" transform="translate(394.580078 0)"/>
     <use xlink:href="#ArialMT-20" transform="translate(416.796875 0)"/>
     <use xlink:href="#ArialMT-73" transform="translate(444.580078 0)"/>
     <use xlink:href="#ArialMT-69" transform="translate(494.580078 0)"/>
     <use xlink:href="#ArialMT-6d" transform="translate(516.796875 0)"/>
     <use xlink:href="#ArialMT-69" transform="translate(600.097656 0)"/>
     <use xlink:href="#ArialMT-6c" transform="translate(622.314453 0)"/>
     <use xlink:href="#ArialMT-61" transform="translate(644.53125 0)"/>
     <use xlink:href="#ArialMT-72" transform="translate(700.146484 0)"/>
     <use xlink:href="#ArialMT-69" transform="translate(733.447266 0)"/>
     <use xlink:href="#ArialMT-74" transform="translate(755.664062 0)"/>
     <use xlink:href="#ArialMT-79" transform="translate(783.447266 0)"/>
     <use xlink:href="#ArialMT-20" transform="translate(833.447266 0)"/>
     <use xlink:href="#ArialMT-6f" transform="translate(861.230469 0)"/>
     <use xlink:href="#ArialMT-66" transform="translate(916.845703 0)"/>
     <use xlink:href="#ArialMT-20" transform="translate(944.628906 0)"/>
     <use xlink:href="#ArialMT-42" transform="translate(972.412109 0)"/>
     <use xlink:href="#ArialMT-69" transform="translate(1039.111328 0)"/>
     <use xlink:href="#ArialMT-6f" transform="translate(1061.328125 0)"/>
     <use xlink:href="#ArialMT-50" transform="translate(1116.943359 0)"/>
     <use xlink:href="#ArialMT-4b" transform="translate(1183.642578 0)"/>
     <use xlink:href="#ArialMT-53" transform="translate(1250.341797 0)"/>
     <use xlink:href="#ArialMT-20" transform="translate(1317.041016 0)"/>
     <use xlink:href="#ArialMT-50" transform="translate(1344.824219 0)"/>
     <use xlink:href="#ArialMT-69" transform="translate(1411.523438 0)"/>
     <use xlink:href="#ArialMT-70" transform="translate(1433.740234 0)"/>
     <use xlink:href="#ArialMT-65" transform="translate(1489.355469 0)"/>
     <use xlink:href="#ArialMT-6c" transform="translate(1544.970703 0)"/>
     <use xlink:href="#ArialMT-69" transform="translate(1567.1875 0)"/>
     <use xlink:href="#ArialMT-6e" transform="translate(1589.404297 0)"/>
     <use xlink:href="#ArialMT-65" transform="translate(1645.019531 0)"/>
     <use xlink:href="#ArialMT-20" transform="translate(1700.634766 0)"/>
     <use xlink:href="#ArialMT-70" transform="translate(1728.417969 0)"/>
     <use xlink:href="#ArialMT-72" transform="translate(1784.033203 0)"/>
     <use xlink:href="#ArialMT-6f" transform="translate(1817.333984 0)"/>
     <use xlink:href="#ArialMT-64" transform="translate(1872.949219 0)"/>
     <use xlink:href="#ArialMT-75" transform="translate(1928.564453 0)"/>
     <use xlink:href="#ArialMT-63" transform="translate(1984.179688 0)"/>
     <use xlink:href="#ArialMT-74" transform="translate(2034.179688 0)"/>
     <use xlink:href="#ArialMT-73" transform="translate(2061.962891 0)"/>
     <use xlink:href="#ArialMT-20" transform="translate(2111.962891 0)"/>
     <use xlink:href="#ArialMT-74" transform="translate(2139.746094 0)"/>
     <use xlink:href="#ArialMT-6f" transform="translate(2167.529297 0)"/>
     <use xlink:href="#ArialMT-20" transform="translate(2223.144531 0)"/>
     <use xlink:href="#ArialMT-74" transform="translate(2250.927734 0)"/>
     <use xlink:href="#ArialMT-61" transform="translate(2278.710938 0)"/>
     <use xlink:href="#ArialMT-72" transform="translate(2334.326172 0)"/>
     <use xlink:href="#ArialMT-67" transform="translate(2367.626953 0)"/>
     <use xlink:href="#ArialMT-65" transform="translate(2423.242188 0)"/>
     <use xlink:href="#ArialMT-74" transform="translate(2478.857422 0)"/>
     <use xlink:href="#ArialMT-73" transform="translate(2506.640625 0)"/>
     <use xlink:href="#ArialMT-20" transform="translate(2556.640625 0)"/>
    </g>
    <!--  for unsuccessful syntheses -->
    <g style="fill: #262626" transform="translate(159.710546 37.98) scale(0.15 -0.15)">
     <use xlink:href="#ArialMT-20"/>
     <use xlink:href="#ArialMT-66" transform="translate(27.783203 0)"/>
     <use xlink:href="#ArialMT-6f" transform="translate(55.566406 0)"/>
     <use xlink:href="#ArialMT-72" transform="translate(111.181641 0)"/>
     <use xlink:href="#ArialMT-20" transform="translate(144.482422 0)"/>
     <use xlink:href="#ArialMT-75" transform="translate(172.265625 0)"/>
     <use xlink:href="#ArialMT-6e" transform="translate(227.880859 0)"/>
     <use xlink:href="#ArialMT-73" transform="translate(283.496094 0)"/>
     <use xlink:href="#ArialMT-75" transform="translate(333.496094 0)"/>
     <use xlink:href="#ArialMT-63" transform="translate(389.111328 0)"/>
     <use xlink:href="#ArialMT-63" transform="translate(439.111328 0)"/>
     <use xlink:href="#ArialMT-65" transform="translate(489.111328 0)"/>
     <use xlink:href="#ArialMT-73" transform="translate(544.726562 0)"/>
     <use xlink:href="#ArialMT-73" transform="translate(594.726562 0)"/>
     <use xlink:href="#ArialMT-66" transform="translate(644.726562 0)"/>
     <use xlink:href="#ArialMT-75" transform="translate(672.509766 0)"/>
     <use xlink:href="#ArialMT-6c" transform="translate(728.125 0)"/>
     <use xlink:href="#ArialMT-20" transform="translate(750.341797 0)"/>
     <use xlink:href="#ArialMT-73" transform="translate(778.125 0)"/>
     <use xlink:href="#ArialMT-79" transform="translate(828.125 0)"/>
     <use xlink:href="#ArialMT-6e" transform="translate(878.125 0)"/>
     <use xlink:href="#ArialMT-74" transform="translate(933.740234 0)"/>
     <use xlink:href="#ArialMT-68" transform="translate(961.523438 0)"/>
     <use xlink:href="#ArialMT-65" transform="translate(1017.138672 0)"/>
     <use xlink:href="#ArialMT-73" transform="translate(1072.753906 0)"/>
     <use xlink:href="#ArialMT-65" transform="translate(1122.753906 0)"/>
     <use xlink:href="#ArialMT-73" transform="translate(1178.369141 0)"/>
    </g>
   </g>
  </g>
 </g>
 <defs>
  <clipPath id="p9fdd5d4f13">
   <rect x="60.896563" y="43.98" width="381.872498" height="224.645604"/>
  </clipPath>
 </defs>
</svg>
